<svg width="783" height="624" viewBox="0 0 783 624" fill="none" xmlns="http://www.w3.org/2000/svg">
<g opacity="0.5">
<g filter="url(#filter0_f_222_378)">
<path d="M367.228 150.683C367.228 150.683 275.031 153.614 215.504 202.622C155.977 251.631 154.34 318.614 150.715 372.829C147.09 427.044 197.744 468.11 271.942 473.52C346.14 478.93 366.156 437.297 449.41 413.86C532.664 390.422 560.424 392.105 610.219 343.981C660.013 295.858 625.185 221.889 534.892 183.948C444.6 146.008 367.228 150.683 367.228 150.683Z" fill="#836FFF"/>
</g>
</g>
<g opacity="0.75">
<path d="M563.471 448.658H165.137V465H563.471V448.658Z" fill="#FFA370"/>
<path opacity="0.5" d="M563.471 448.658H165.137V465H563.471V448.658Z" fill="white"/>
<path d="M264.332 273.381C262.383 274.014 260.47 274.754 258.602 275.597C259.623 274.841 260.645 274.075 261.666 273.289C266.221 269.637 270.553 265.715 274.637 261.543C269.847 266.205 264.727 270.517 259.317 274.443C260.055 273.145 260.71 271.801 261.278 270.419C262.248 267.876 262.483 265.312 260.052 263.954C257.07 262.278 253.444 264.781 254.404 269.06C254.98 271.449 256.107 273.67 257.693 275.546C254.167 277.986 250.486 280.194 246.672 282.154L246.305 282.338C247.115 280.942 247.828 279.492 248.439 277.997C249.409 275.464 249.644 272.89 247.214 271.542C244.231 269.857 240.605 272.37 241.565 276.649C242.136 279.008 243.244 281.203 244.803 283.063C240.217 285.321 235.468 287.241 230.759 289.324L230.075 289.631C230.997 288.642 231.85 287.591 232.628 286.485C234.171 284.248 234.988 281.817 232.945 279.918C230.432 277.589 226.326 279.192 226.255 283.605C226.256 286.041 226.826 288.444 227.92 290.621C223.514 292.667 219.325 295.151 215.418 298.037L215.296 298.139C215.824 297.301 216.304 296.435 216.736 295.544C217.89 293.083 218.319 290.55 216 289.008C215.528 288.68 214.987 288.465 214.419 288.377C213.85 288.29 213.27 288.333 212.721 288.503C212.171 288.674 211.668 288.967 211.249 289.36C210.83 289.754 210.506 290.237 210.301 290.775C209.993 290.293 209.572 289.894 209.076 289.61C206.737 288.262 204.439 289.723 202.477 291.786C201.967 292.327 201.456 292.899 201.017 293.481C202.535 289.257 204.447 285.184 206.726 281.317C208.89 282.271 211.226 282.772 213.59 282.788C218.247 282.788 220.219 278.906 217.931 276.496C216.072 274.545 213.457 275.291 210.986 276.721C210.168 277.195 209.377 277.713 208.616 278.273C210.987 274.706 213.677 271.363 216.654 268.284C218.571 269.867 220.803 271.023 223.201 271.675C227.726 272.788 230.575 269.51 228.931 266.619C227.603 264.27 224.846 264.362 222.139 265.149C220.85 265.542 219.585 266.009 218.35 266.548C219.585 265.353 220.862 264.199 222.149 263.055C223.855 261.604 225.612 260.205 227.389 258.836C229.311 260.369 231.535 261.479 233.915 262.095C238.44 263.208 241.279 259.929 239.645 257.039C238.317 254.69 235.56 254.782 232.853 255.568C232.21 255.752 231.576 255.977 230.943 256.212C233.302 254.526 235.703 252.882 238.093 251.248L240.319 249.726C242.315 251.4 244.66 252.608 247.183 253.26C251.708 254.373 254.547 251.094 252.913 248.204C251.585 245.855 248.827 245.947 246.121 246.733C245.049 247.054 243.996 247.433 242.965 247.867C243.424 247.54 243.884 247.213 244.333 246.846C245.181 246.243 246.008 245.62 246.836 244.987C247.857 244.221 248.817 243.363 249.818 242.556C250.38 242.106 250.931 241.626 251.473 241.136C253.478 242.827 255.838 244.045 258.377 244.701C262.902 245.814 265.741 242.535 264.107 239.645C262.779 237.296 260.022 237.388 257.315 238.174C255.797 238.643 254.31 239.206 252.862 239.859C254.71 238.143 256.498 236.356 258.183 234.497L258.52 234.109C259.245 233.302 259.97 232.475 260.665 231.637C261.36 230.8 262.248 229.666 263.004 228.655C266.117 224.587 268.673 220.122 270.603 215.377C268.577 220.062 265.939 224.458 262.759 228.451C259.611 232.459 256.099 236.169 252.269 239.533L251.851 239.89C252.732 238.382 253.51 236.816 254.179 235.202C255.201 232.669 255.384 230.095 252.954 228.747C249.971 227.062 246.345 229.574 247.305 233.854C247.919 236.389 249.15 238.733 250.89 240.676L249.992 241.453L248.97 242.331C248.368 242.811 247.765 243.271 247.152 243.73L246.131 244.476C245.263 245.119 244.374 245.742 243.486 246.355L242.219 247.223L240.769 248.245C241.61 246.794 242.354 245.29 242.995 243.741C243.966 241.197 244.2 238.634 241.77 237.275C238.787 235.6 235.161 238.113 236.121 242.382C236.717 244.839 237.89 247.119 239.543 249.031L238.471 249.726L234.487 252.33L233.711 252.841L231.495 254.322L230.535 254.965C229.513 255.67 228.492 256.385 227.47 257.121C228.329 255.649 229.087 254.12 229.738 252.545C230.708 250.012 230.943 247.438 228.512 246.09C225.53 244.404 221.904 246.917 222.864 251.197C223.47 253.685 224.668 255.991 226.357 257.917C224.621 259.194 222.915 260.501 221.25 261.87C220.035 262.891 218.83 263.913 217.665 265.016C218.178 264.071 218.631 263.095 219.024 262.095C220.045 259.551 220.229 256.988 217.798 255.64C214.816 253.954 211.19 256.467 212.15 260.746C212.725 263.104 213.833 265.298 215.388 267.161C212.08 270.451 209.097 274.052 206.481 277.916C206.78 276.801 207.008 275.668 207.166 274.525C207.492 271.828 207.104 269.295 204.418 268.56C201.109 267.651 198.198 270.96 200.169 274.903C201.306 277.071 202.928 278.948 204.908 280.387C202.346 284.595 200.198 289.042 198.494 293.665C198.459 292.7 198.364 291.738 198.208 290.785C197.759 288.099 196.666 285.78 193.878 285.831C190.456 285.903 188.607 289.917 191.61 293.124C193.222 294.798 195.187 296.092 197.36 296.913C196.202 300.487 195.253 304.126 194.521 307.811C194.409 308.393 194.317 308.976 194.204 309.558C194.082 309.67 193.959 309.782 193.847 309.905C193.724 309.404 193.581 308.884 193.418 308.404C192.56 305.83 191.12 303.695 188.383 304.185C185.002 304.767 183.786 309.006 187.259 311.733C189.029 313.078 191.067 314.028 193.234 314.522L193.357 314.818C192.989 317.586 192.703 320.374 192.529 323.173C192.397 325.215 192.325 327.35 192.284 329.444C189.363 329.444 187.3 332.651 189.312 336.124C190.163 337.562 191.251 338.847 192.529 339.923C192.774 343.855 193.163 347.788 193.683 351.689C193.27 351.308 192.764 351.041 192.217 350.914C191.669 350.787 191.097 350.804 190.558 350.964C188.72 351.465 187.892 352.946 187.586 354.764C186.941 355.447 186.577 356.347 186.565 357.286C185.196 355.244 183.909 353.201 182.653 351.036C184.567 349.569 186.153 347.718 187.31 345.602C189.516 341.516 187.034 337.931 183.827 338.8C181.223 339.504 180.641 342.17 180.763 345.02C180.803 346.101 180.905 347.178 181.07 348.247C180.61 347.461 180.161 346.664 179.721 345.878C178.598 343.835 177.679 341.792 176.576 339.749C176.31 339.249 176.075 338.728 175.85 338.217C178.005 337.138 179.909 335.618 181.437 333.754C184.369 330.138 182.602 326.165 179.292 326.421C176.606 326.635 175.534 329.137 175.084 331.956C174.896 333.184 174.787 334.422 174.757 335.664L173.797 333.448C171.756 328.419 170.073 323.251 168.762 317.984C171.196 317.117 173.407 315.722 175.238 313.899C178.516 310.579 177.158 306.463 173.838 306.381C171.142 306.32 169.824 308.7 169.089 311.488C168.728 312.969 168.455 314.469 168.272 315.982C167.567 312.918 166.954 309.905 166.444 306.841C166.096 304.941 165.872 303.011 165.626 301.091C168.247 300.571 170.716 299.464 172.848 297.853C176.524 294.993 175.707 290.703 172.429 290.223C169.763 289.804 168.149 292 167.067 294.646C166.429 296.314 165.893 298.019 165.463 299.753C165.259 297.526 165.024 295.289 164.922 293.052C164.631 288.433 164.651 283.799 164.983 279.182C164.511 283.796 164.351 288.437 164.503 293.073C164.503 295.207 164.687 297.332 164.82 299.467C164.234 298.016 163.551 296.607 162.777 295.248C161.378 292.909 159.529 291.163 156.945 292.184C153.779 293.492 153.503 297.883 157.476 299.804C159.816 300.875 162.382 301.363 164.952 301.223C165.136 303.123 165.289 305.033 165.586 306.923C165.984 309.936 166.495 312.928 167.087 315.9C166.441 314.76 165.717 313.664 164.922 312.622C163.236 310.487 161.163 308.976 158.793 310.354C155.821 312.06 156.117 316.483 160.305 317.841C162.68 318.58 165.196 318.748 167.649 318.331C168.811 323.658 170.343 328.896 172.235 334.009L172.848 335.541C172.307 334.826 171.724 334.144 171.101 333.499C169.211 331.538 167.016 330.24 164.728 331.864C161.939 333.856 162.685 338.197 166.985 339.157C169.369 339.642 171.833 339.572 174.186 338.953C174.39 339.474 174.615 339.974 174.87 340.505C175.891 342.609 176.8 344.764 177.873 346.827L178.802 348.594C178.274 348.13 177.721 347.694 177.148 347.287C174.921 345.724 172.51 344.866 170.58 346.879C168.221 349.361 169.753 353.487 174.165 353.62C176.423 353.679 178.666 353.251 180.743 352.363C181.999 354.651 183.306 356.908 184.716 359.125C185.237 359.973 185.737 360.81 186.33 361.648C185.528 360.895 184.679 360.196 183.786 359.554C181.57 357.991 179.149 357.133 177.229 359.145C174.86 361.627 176.402 365.753 180.814 365.886C183.336 365.915 185.828 365.345 188.086 364.221C188.808 365.243 189.564 366.264 190.354 367.286C188.709 369.196 189.241 372.392 192.58 373.853C194.203 374.526 195.932 374.91 197.687 374.987L198.321 375.467L198.433 375.548C200.541 383.438 203.043 391.217 205.93 398.856C207.162 402.118 208.463 405.349 209.831 408.549H197.575V456.89H235.018V408.539H215.01C213.304 404.811 211.67 401.042 210.138 397.232C207.635 390.971 205.368 384.628 203.387 378.184C203.721 378.284 204.063 378.363 204.408 378.418C204.862 378.508 205.327 378.529 205.787 378.48L205.256 375.119H205.184H204.898C204.714 375.119 204.469 375.028 204.255 374.997C203.785 374.864 203.328 374.693 202.886 374.486L202.355 374.241C204.323 373.555 206.151 372.517 207.748 371.177C211.302 368.113 210.291 363.925 206.992 363.568C204.306 363.272 202.794 365.539 201.885 368.225C201.609 368.991 201.385 369.788 201.18 370.564C200.997 369.849 200.792 369.134 200.619 368.419C200.077 366.305 199.597 364.17 199.107 362.036C201.241 361.356 203.222 360.267 204.939 358.829C208.493 355.764 207.482 351.587 204.183 351.23C201.497 350.933 199.985 353.201 199.076 355.887C198.798 356.668 198.559 357.462 198.361 358.267C198.055 356.704 197.749 355.152 197.483 353.589C197.279 352.425 197.105 351.27 196.931 350.106C196.86 348.451 196.84 346.797 196.86 345.132C196.86 344.223 196.86 343.314 196.942 342.395C198.942 343.036 201.044 343.306 203.141 343.191C207.789 342.885 209.515 338.902 207.084 336.644C205.102 334.796 202.539 335.715 200.159 337.288C199.09 338.011 198.067 338.799 197.095 339.647C197.377 335.76 197.965 331.901 198.852 328.106C199.381 325.871 200.036 323.669 200.813 321.508C202.947 322.247 205.206 322.563 207.462 322.437C212.109 322.141 213.835 318.158 211.404 315.89C209.423 314.052 206.859 314.961 204.479 316.544C203.634 317.114 202.819 317.727 202.038 318.382C202.932 316.267 203.976 314.219 205.164 312.254C207.54 308.304 210.51 304.742 213.968 301.693C215.745 303.339 217.846 304.595 220.137 305.38C224.56 306.831 227.644 303.767 226.265 300.764C225.121 298.323 222.394 298.21 219.606 298.792C218.545 299.022 217.498 299.311 216.47 299.661L216.532 299.599C220.343 296.625 224.45 294.051 228.788 291.919C230.314 293.927 232.258 295.579 234.487 296.76C238.624 298.895 242.158 296.362 241.239 293.175C240.493 290.581 237.827 290.039 234.967 290.111C233.852 290.176 232.74 290.298 231.638 290.479C236.234 288.303 240.942 286.25 245.467 283.85L245.559 283.799C247.591 285.548 249.999 286.807 252.596 287.476C257.121 288.599 259.97 285.31 258.336 282.42C256.998 280.071 254.251 280.173 251.534 280.949C250.768 281.174 250.002 281.45 249.266 281.736C252.291 279.974 255.223 278.058 258.05 275.995L258.295 276.251C258.29 276.214 258.29 276.176 258.295 276.138C260.342 277.906 262.767 279.182 265.384 279.866C269.908 280.98 272.748 277.701 271.114 274.811C269.796 272.492 267.079 272.594 264.332 273.381ZM192.917 365.927C191.998 364.834 191.12 363.711 190.252 362.567C190.466 362.383 190.691 362.179 190.916 361.954C192.188 362.352 193.506 362.589 194.838 362.659C194.838 362.73 194.838 362.802 194.838 362.873L195.461 362.74C195.777 364.354 196.125 365.958 196.482 367.561C196.065 367.021 195.522 366.59 194.901 366.305C194.28 366.02 193.6 365.891 192.917 365.927ZM196.257 327.473C195.941 328.668 195.665 329.883 195.42 331.098C195.374 331.021 195.319 330.949 195.256 330.884C195.256 328.392 195.297 325.906 195.379 323.428C195.45 321.692 195.573 319.965 195.726 318.229C196.562 319.09 197.487 319.86 198.484 320.527C197.605 322.796 196.862 325.116 196.257 327.473ZM200.445 316.033C200.445 315.584 200.547 315.124 200.578 314.675C200.578 314.44 200.578 314.215 200.578 313.99C200.945 313.878 201.313 313.745 201.691 313.592C201.262 314.399 200.843 315.206 200.445 316.033ZM205.766 307.392C205.585 306.991 205.326 306.63 205.003 306.33C204.68 306.03 204.301 305.797 203.887 305.646C201.374 304.624 199.321 306.463 197.697 308.812L197.626 308.924H197.463C197.291 308.886 197.117 308.862 196.942 308.853C196.942 308.71 196.942 308.567 197.013 308.424C197.661 304.739 198.531 301.096 199.618 297.516C201.962 297.811 204.343 297.627 206.614 296.974C208.003 296.617 209.22 295.777 210.046 294.605C210.5 296.661 211.353 298.608 212.558 300.335C210.053 302.454 207.777 304.83 205.766 307.423V307.392Z" fill="#FFA370"/>
<path opacity="0.5" d="M264.332 273.381C262.383 274.014 260.47 274.754 258.602 275.597C259.623 274.841 260.645 274.075 261.666 273.289C266.221 269.637 270.553 265.715 274.637 261.543C269.847 266.205 264.727 270.517 259.317 274.443C260.055 273.145 260.71 271.801 261.278 270.419C262.248 267.876 262.483 265.312 260.052 263.954C257.07 262.278 253.444 264.781 254.404 269.06C254.98 271.449 256.107 273.67 257.693 275.546C254.167 277.986 250.486 280.194 246.672 282.154L246.305 282.338C247.115 280.942 247.828 279.492 248.439 277.997C249.409 275.464 249.644 272.89 247.214 271.542C244.231 269.857 240.605 272.37 241.565 276.649C242.136 279.008 243.244 281.203 244.803 283.063C240.217 285.321 235.468 287.241 230.759 289.324L230.075 289.631C230.997 288.642 231.85 287.591 232.628 286.485C234.171 284.248 234.988 281.817 232.945 279.918C230.432 277.589 226.326 279.192 226.255 283.605C226.256 286.041 226.826 288.444 227.92 290.621C223.514 292.667 219.325 295.151 215.418 298.037L215.296 298.139C215.824 297.301 216.304 296.435 216.736 295.544C217.89 293.083 218.319 290.55 216 289.008C215.528 288.68 214.987 288.465 214.419 288.377C213.85 288.29 213.27 288.333 212.721 288.503C212.171 288.674 211.668 288.967 211.249 289.36C210.83 289.754 210.506 290.237 210.301 290.775C209.993 290.293 209.572 289.894 209.076 289.61C206.737 288.262 204.439 289.723 202.477 291.786C201.967 292.327 201.456 292.899 201.017 293.481C202.535 289.257 204.447 285.184 206.726 281.317C208.89 282.271 211.226 282.772 213.59 282.788C218.247 282.788 220.219 278.906 217.931 276.496C216.072 274.545 213.457 275.291 210.986 276.721C210.168 277.195 209.377 277.713 208.616 278.273C210.987 274.706 213.677 271.363 216.654 268.284C218.571 269.867 220.803 271.023 223.201 271.675C227.726 272.788 230.575 269.51 228.931 266.619C227.603 264.27 224.846 264.362 222.139 265.149C220.85 265.542 219.585 266.009 218.35 266.548C219.585 265.353 220.862 264.199 222.149 263.055C223.855 261.604 225.612 260.205 227.389 258.836C229.311 260.369 231.535 261.479 233.915 262.095C238.44 263.208 241.279 259.929 239.645 257.039C238.317 254.69 235.56 254.782 232.853 255.568C232.21 255.752 231.576 255.977 230.943 256.212C233.302 254.526 235.703 252.882 238.093 251.248L240.319 249.726C242.315 251.4 244.66 252.608 247.183 253.26C251.708 254.373 254.547 251.094 252.913 248.204C251.585 245.855 248.827 245.947 246.121 246.733C245.049 247.054 243.996 247.433 242.965 247.867C243.424 247.54 243.884 247.213 244.333 246.846C245.181 246.243 246.008 245.62 246.836 244.987C247.857 244.221 248.817 243.363 249.818 242.556C250.38 242.106 250.931 241.626 251.473 241.136C253.478 242.827 255.838 244.045 258.377 244.701C262.902 245.814 265.741 242.535 264.107 239.645C262.779 237.296 260.022 237.388 257.315 238.174C255.797 238.643 254.31 239.206 252.862 239.859C254.71 238.143 256.498 236.356 258.183 234.497L258.52 234.109C259.245 233.302 259.97 232.475 260.665 231.637C261.36 230.8 262.248 229.666 263.004 228.655C266.117 224.587 268.673 220.122 270.603 215.377C268.577 220.062 265.939 224.458 262.759 228.451C259.611 232.459 256.099 236.169 252.269 239.533L251.851 239.89C252.732 238.382 253.51 236.816 254.179 235.202C255.201 232.669 255.384 230.095 252.954 228.747C249.971 227.062 246.345 229.574 247.305 233.854C247.919 236.389 249.15 238.733 250.89 240.676L249.992 241.453L248.97 242.331C248.368 242.811 247.765 243.271 247.152 243.73L246.131 244.476C245.263 245.119 244.374 245.742 243.486 246.355L242.219 247.223L240.769 248.245C241.61 246.794 242.354 245.29 242.995 243.741C243.966 241.197 244.2 238.634 241.77 237.275C238.787 235.6 235.161 238.113 236.121 242.382C236.717 244.839 237.89 247.119 239.543 249.031L238.471 249.726L234.487 252.33L233.711 252.841L231.495 254.322L230.535 254.965C229.513 255.67 228.492 256.385 227.47 257.121C228.329 255.649 229.087 254.12 229.738 252.545C230.708 250.012 230.943 247.438 228.512 246.09C225.53 244.404 221.904 246.917 222.864 251.197C223.47 253.685 224.668 255.991 226.357 257.917C224.621 259.194 222.915 260.501 221.25 261.87C220.035 262.891 218.83 263.913 217.665 265.016C218.178 264.071 218.631 263.095 219.024 262.095C220.045 259.551 220.229 256.988 217.798 255.64C214.816 253.954 211.19 256.467 212.15 260.746C212.725 263.104 213.833 265.298 215.388 267.161C212.08 270.451 209.097 274.052 206.481 277.916C206.78 276.801 207.008 275.668 207.166 274.525C207.492 271.828 207.104 269.295 204.418 268.56C201.109 267.651 198.198 270.96 200.169 274.903C201.306 277.071 202.928 278.948 204.908 280.387C202.346 284.595 200.198 289.042 198.494 293.665C198.459 292.7 198.364 291.738 198.208 290.785C197.759 288.099 196.666 285.78 193.878 285.831C190.456 285.903 188.607 289.917 191.61 293.124C193.222 294.798 195.187 296.092 197.36 296.913C196.202 300.487 195.253 304.126 194.521 307.811C194.409 308.393 194.317 308.976 194.204 309.558C194.082 309.67 193.959 309.782 193.847 309.905C193.724 309.404 193.581 308.884 193.418 308.404C192.56 305.83 191.12 303.695 188.383 304.185C185.002 304.767 183.786 309.006 187.259 311.733C189.029 313.078 191.067 314.028 193.234 314.522L193.357 314.818C192.989 317.586 192.703 320.374 192.529 323.173C192.397 325.215 192.325 327.35 192.284 329.444C189.363 329.444 187.3 332.651 189.312 336.124C190.163 337.562 191.251 338.847 192.529 339.923C192.774 343.855 193.163 347.788 193.683 351.689C193.27 351.308 192.764 351.041 192.217 350.914C191.669 350.787 191.097 350.804 190.558 350.964C188.72 351.465 187.892 352.946 187.586 354.764C186.941 355.447 186.577 356.347 186.565 357.286C185.196 355.244 183.909 353.201 182.653 351.036C184.567 349.569 186.153 347.718 187.31 345.602C189.516 341.516 187.034 337.931 183.827 338.8C181.223 339.504 180.641 342.17 180.763 345.02C180.803 346.101 180.905 347.178 181.07 348.247C180.61 347.461 180.161 346.664 179.721 345.878C178.598 343.835 177.679 341.792 176.576 339.749C176.31 339.249 176.075 338.728 175.85 338.217C178.005 337.138 179.909 335.618 181.437 333.754C184.369 330.138 182.602 326.165 179.292 326.421C176.606 326.635 175.534 329.137 175.084 331.956C174.896 333.184 174.787 334.422 174.757 335.664L173.797 333.448C171.756 328.419 170.073 323.251 168.762 317.984C171.196 317.117 173.407 315.722 175.238 313.899C178.516 310.579 177.158 306.463 173.838 306.381C171.142 306.32 169.824 308.7 169.089 311.488C168.728 312.969 168.455 314.469 168.272 315.982C167.567 312.918 166.954 309.905 166.444 306.841C166.096 304.941 165.872 303.011 165.626 301.091C168.247 300.571 170.716 299.464 172.848 297.853C176.524 294.993 175.707 290.703 172.429 290.223C169.763 289.804 168.149 292 167.067 294.646C166.429 296.314 165.893 298.019 165.463 299.753C165.259 297.526 165.024 295.289 164.922 293.052C164.631 288.433 164.651 283.799 164.983 279.182C164.511 283.796 164.351 288.437 164.503 293.073C164.503 295.207 164.687 297.332 164.82 299.467C164.234 298.016 163.551 296.607 162.777 295.248C161.378 292.909 159.529 291.163 156.945 292.184C153.779 293.492 153.503 297.883 157.476 299.804C159.816 300.875 162.382 301.363 164.952 301.223C165.136 303.123 165.289 305.033 165.586 306.923C165.984 309.936 166.495 312.928 167.087 315.9C166.441 314.76 165.717 313.664 164.922 312.622C163.236 310.487 161.163 308.976 158.793 310.354C155.821 312.06 156.117 316.483 160.305 317.841C162.68 318.58 165.196 318.748 167.649 318.331C168.811 323.658 170.343 328.896 172.235 334.009L172.848 335.541C172.307 334.826 171.724 334.144 171.101 333.499C169.211 331.538 167.016 330.24 164.728 331.864C161.939 333.856 162.685 338.197 166.985 339.157C169.369 339.642 171.833 339.572 174.186 338.953C174.39 339.474 174.615 339.974 174.87 340.505C175.891 342.609 176.8 344.764 177.873 346.827L178.802 348.594C178.274 348.13 177.721 347.694 177.148 347.287C174.921 345.724 172.51 344.866 170.58 346.879C168.221 349.361 169.753 353.487 174.165 353.62C176.423 353.679 178.666 353.251 180.743 352.363C181.999 354.651 183.306 356.908 184.716 359.125C185.237 359.973 185.737 360.81 186.33 361.648C185.528 360.895 184.679 360.196 183.786 359.554C181.57 357.991 179.149 357.133 177.229 359.145C174.86 361.627 176.402 365.753 180.814 365.886C183.336 365.915 185.828 365.345 188.086 364.221C188.808 365.243 189.564 366.264 190.354 367.286C188.709 369.196 189.241 372.392 192.58 373.853C194.203 374.526 195.932 374.91 197.687 374.987L198.321 375.467L198.433 375.548C200.541 383.438 203.043 391.217 205.93 398.856C207.162 402.118 208.463 405.349 209.831 408.549H197.575V456.89H235.018V408.539H215.01C213.304 404.811 211.67 401.042 210.138 397.232C207.635 390.971 205.368 384.628 203.387 378.184C203.721 378.284 204.063 378.363 204.408 378.418C204.862 378.508 205.327 378.529 205.787 378.48L205.256 375.119H205.184H204.898C204.714 375.119 204.469 375.028 204.255 374.997C203.785 374.864 203.328 374.693 202.886 374.486L202.355 374.241C204.323 373.555 206.151 372.517 207.748 371.177C211.302 368.113 210.291 363.925 206.992 363.568C204.306 363.272 202.794 365.539 201.885 368.225C201.609 368.991 201.385 369.788 201.18 370.564C200.997 369.849 200.792 369.134 200.619 368.419C200.077 366.305 199.597 364.17 199.107 362.036C201.241 361.356 203.222 360.267 204.939 358.829C208.493 355.764 207.482 351.587 204.183 351.23C201.497 350.933 199.985 353.201 199.076 355.887C198.798 356.668 198.559 357.462 198.361 358.267C198.055 356.704 197.749 355.152 197.483 353.589C197.279 352.425 197.105 351.27 196.931 350.106C196.86 348.451 196.84 346.797 196.86 345.132C196.86 344.223 196.86 343.314 196.942 342.395C198.942 343.036 201.044 343.306 203.141 343.191C207.789 342.885 209.515 338.902 207.084 336.644C205.102 334.796 202.539 335.715 200.159 337.288C199.09 338.011 198.067 338.799 197.095 339.647C197.377 335.76 197.965 331.901 198.852 328.106C199.381 325.871 200.036 323.669 200.813 321.508C202.947 322.247 205.206 322.563 207.462 322.437C212.109 322.141 213.835 318.158 211.404 315.89C209.423 314.052 206.859 314.961 204.479 316.544C203.634 317.114 202.819 317.727 202.038 318.382C202.932 316.267 203.976 314.219 205.164 312.254C207.54 308.304 210.51 304.742 213.968 301.693C215.745 303.339 217.846 304.595 220.137 305.38C224.56 306.831 227.644 303.767 226.265 300.764C225.121 298.323 222.394 298.21 219.606 298.792C218.545 299.022 217.498 299.311 216.47 299.661L216.532 299.599C220.343 296.625 224.45 294.051 228.788 291.919C230.314 293.927 232.258 295.579 234.487 296.76C238.624 298.895 242.158 296.362 241.239 293.175C240.493 290.581 237.827 290.039 234.967 290.111C233.852 290.176 232.74 290.298 231.638 290.479C236.234 288.303 240.942 286.25 245.467 283.85L245.559 283.799C247.591 285.548 249.999 286.807 252.596 287.476C257.121 288.599 259.97 285.31 258.336 282.42C256.998 280.071 254.251 280.173 251.534 280.949C250.768 281.174 250.002 281.45 249.266 281.736C252.291 279.974 255.223 278.058 258.05 275.995L258.295 276.251C258.29 276.214 258.29 276.176 258.295 276.138C260.342 277.906 262.767 279.182 265.384 279.866C269.908 280.98 272.748 277.701 271.114 274.811C269.796 272.492 267.079 272.594 264.332 273.381ZM192.917 365.927C191.998 364.834 191.12 363.711 190.252 362.567C190.466 362.383 190.691 362.179 190.916 361.954C192.188 362.352 193.506 362.589 194.838 362.659C194.838 362.73 194.838 362.802 194.838 362.873L195.461 362.74C195.777 364.354 196.125 365.958 196.482 367.561C196.065 367.021 195.522 366.59 194.901 366.305C194.28 366.02 193.6 365.891 192.917 365.927ZM196.257 327.473C195.941 328.668 195.665 329.883 195.42 331.098C195.374 331.021 195.319 330.949 195.256 330.884C195.256 328.392 195.297 325.906 195.379 323.428C195.45 321.692 195.573 319.965 195.726 318.229C196.562 319.09 197.487 319.86 198.484 320.527C197.605 322.796 196.862 325.116 196.257 327.473ZM200.445 316.033C200.445 315.584 200.547 315.124 200.578 314.675C200.578 314.44 200.578 314.215 200.578 313.99C200.945 313.878 201.313 313.745 201.691 313.592C201.262 314.399 200.843 315.206 200.445 316.033ZM205.766 307.392C205.585 306.991 205.326 306.63 205.003 306.33C204.68 306.03 204.301 305.797 203.887 305.646C201.374 304.624 199.321 306.463 197.697 308.812L197.626 308.924H197.463C197.291 308.886 197.117 308.862 196.942 308.853C196.942 308.71 196.942 308.567 197.013 308.424C197.661 304.739 198.531 301.096 199.618 297.516C201.962 297.811 204.343 297.627 206.614 296.974C208.003 296.617 209.22 295.777 210.046 294.605C210.5 296.661 211.353 298.608 212.558 300.335C210.053 302.454 207.777 304.83 205.766 307.423V307.392Z" fill="white"/>
</g>
<path d="M554.666 458.923C554.666 461.374 498.572 463.356 429.384 463.356C360.197 463.356 304.093 461.374 304.093 458.923C304.093 456.472 360.186 454.5 429.384 454.5C498.582 454.5 554.666 456.482 554.666 458.923Z" fill="#6959CB"/>
<path opacity="0.3" d="M554.666 458.923C554.666 461.374 498.572 463.356 429.384 463.356C360.197 463.356 304.093 461.374 304.093 458.923C304.093 456.472 360.186 454.5 429.384 454.5C498.582 454.5 554.666 456.482 554.666 458.923Z" fill="#2E353A"/>
<path d="M420.366 419.151C420.366 419.151 426.494 445.339 423.808 449.649C420.345 455.277 383.423 458.667 383.423 458.667H464.836C464.836 458.667 475.05 455.808 471.986 447.606C469.606 441.253 458.218 419.151 458.218 419.151H420.366Z" fill="white" stroke="#2E353A" stroke-linecap="round" stroke-linejoin="round"/>
<path d="M418.589 419.151C418.589 419.151 425.085 445.563 422.031 449.649C418.977 453.734 383.423 456.849 383.423 456.849H465.214C465.214 456.849 472.098 454.071 470.188 447.606C468.278 441.141 456.43 419.151 456.43 419.151H418.589Z" fill="white" stroke="#2E353A" stroke-linecap="round" stroke-linejoin="round"/>
<g style="mix-blend-mode:multiply">
<path d="M456.43 419.151H418.64C418.64 419.151 422.48 434.798 422.858 443.868H468.82C465.051 435.145 456.43 419.151 456.43 419.151Z" fill="#6959CB"/>
</g>
<path d="M464.836 456.982H383.423V458.667H464.836V456.982Z" fill="white" stroke="#2E353A" stroke-linecap="round" stroke-linejoin="round"/>
<path d="M554.441 237.49H326.113C321.33 237.49 317.452 241.367 317.452 246.151V413.074C317.452 417.857 321.33 421.735 326.113 421.735H554.441C559.224 421.735 563.102 417.857 563.102 413.074V246.151C563.102 241.367 559.224 237.49 554.441 237.49Z" fill="#6959CB" stroke="#2E353A" stroke-linecap="round" stroke-linejoin="round"/>
<path d="M548.65 237.49H320.322C315.539 237.49 311.661 241.368 311.661 246.151V413.074C311.661 417.857 315.539 421.735 320.322 421.735H548.65C553.433 421.735 557.311 417.857 557.311 413.074V246.151C557.311 241.368 553.433 237.49 548.65 237.49Z" fill="#2E353A" stroke="#2E353A" stroke-linecap="round" stroke-linejoin="round"/>
<path d="M311.661 393.085H557.311V413.053C557.311 415.35 556.398 417.553 554.774 419.177C553.15 420.802 550.947 421.714 548.65 421.714H320.322C318.025 421.714 315.822 420.802 314.198 419.177C312.574 417.553 311.661 415.35 311.661 413.053V393.085Z" fill="white" stroke="#2E353A" stroke-linecap="round" stroke-linejoin="round"/>
<path d="M544.962 248.949H324.02V379.113H544.962V248.949Z" fill="#6959CB" stroke="#2E353A" stroke-linecap="round" stroke-linejoin="round"/>
<path d="M439.016 407.405C439.016 406.508 438.75 405.63 438.251 404.884C437.752 404.138 437.043 403.557 436.214 403.214C435.385 402.871 434.473 402.782 433.593 402.958C432.713 403.134 431.905 403.567 431.271 404.202C430.637 404.837 430.206 405.646 430.032 406.526C429.858 407.407 429.95 408.319 430.294 409.147C430.639 409.976 431.222 410.683 431.969 411.18C432.716 411.678 433.594 411.942 434.491 411.94C435.086 411.94 435.676 411.822 436.225 411.594C436.775 411.366 437.274 411.032 437.694 410.611C438.115 410.19 438.448 409.69 438.675 409.14C438.901 408.589 439.017 408 439.016 407.405Z" fill="#2E353A" stroke="#2E353A" stroke-linecap="round" stroke-linejoin="round"/>
<path d="M542.889 258.121H325.756V269.53H542.889V258.121Z" fill="#2E353A" stroke="#2E353A" stroke-linecap="round" stroke-linejoin="round"/>
<path d="M361.575 269.54L358.981 262.493H325.756V269.54V278.886V373.567H542.889V269.54H361.575Z" fill="white" stroke="#2E353A" stroke-linecap="round" stroke-linejoin="round"/>
<path d="M481.648 459.668C481.648 459.668 483.047 463.049 490.759 464.224C498.47 465.398 550.478 459.311 550.478 459.311C550.478 459.311 553.747 458.494 553.981 456.86C554.216 455.225 545.565 450.435 529.56 448.444C515.633 446.845 501.524 448.445 488.307 453.121C478.38 456.747 481.648 459.668 481.648 459.668Z" fill="white" stroke="#2E353A" stroke-linecap="round" stroke-linejoin="round"/>
<g style="mix-blend-mode:multiply">
<path d="M541.5 453.938C538.028 453.938 530.173 454.306 523.78 454.858C517.386 455.409 506.794 459.423 500.952 461.425C495.11 463.427 485.795 462.896 485.795 462.896C487.388 463.544 489.055 463.99 490.759 464.224C498.47 465.388 550.478 459.311 550.478 459.311C551.618 459.026 552.671 458.465 553.542 457.677C550.243 455.287 544.34 453.938 541.5 453.938Z" fill="#6959CB"/>
</g>
<path d="M551.622 456.543C552.077 456.782 552.511 457.059 552.919 457.37" stroke="#2E353A" stroke-linecap="round" stroke-linejoin="round"/>
<path d="M487.378 463.407C492.797 463.568 498.195 462.655 503.26 460.72C514.004 456.491 525.421 454.232 536.965 454.051C543.676 454 547.782 454.919 550.243 455.849" stroke="#2E353A" stroke-linecap="round" stroke-linejoin="round"/>
<path d="M530.532 323.816H462.836V365.018H530.216" stroke="#2E353A" stroke-width="0.5" stroke-linecap="round" stroke-linejoin="round"/>
<path d="M463.143 335.562H530.839" stroke="#2E353A" stroke-width="0.5" stroke-linecap="round" stroke-linejoin="round"/>
<path d="M463.143 347.277H530.839" stroke="#2E353A" stroke-width="0.5" stroke-linecap="round" stroke-linejoin="round"/>
<path d="M463.143 358.992H530.839" stroke="#2E353A" stroke-width="0.5" stroke-linecap="round" stroke-linejoin="round"/>
<path d="M460.976 324.092H458.198" stroke="#2E353A" stroke-width="0.5" stroke-linecap="round" stroke-linejoin="round"/>
<path d="M460.976 329.893H458.198" stroke="#2E353A" stroke-width="0.5" stroke-linecap="round" stroke-linejoin="round"/>
<path d="M460.976 335.705H458.198" stroke="#2E353A" stroke-width="0.5" stroke-linecap="round" stroke-linejoin="round"/>
<path d="M460.976 341.516H458.198" stroke="#2E353A" stroke-width="0.5" stroke-linecap="round" stroke-linejoin="round"/>
<path d="M460.976 347.318H458.198" stroke="#2E353A" stroke-width="0.5" stroke-linecap="round" stroke-linejoin="round"/>
<path d="M460.976 353.129H458.198" stroke="#2E353A" stroke-width="0.5" stroke-linecap="round" stroke-linejoin="round"/>
<path d="M460.976 358.941H458.198" stroke="#2E353A" stroke-width="0.5" stroke-linecap="round" stroke-linejoin="round"/>
<path d="M460.976 364.742H458.198" stroke="#2E353A" stroke-width="0.5" stroke-linecap="round" stroke-linejoin="round"/>
<path d="M468.412 340.311H465.297V364.855H468.412V340.311Z" fill="#2E353A" stroke="#2E353A" stroke-linecap="round" stroke-linejoin="round"/>
<path d="M473.937 328.565H470.822V364.855H473.937V328.565Z" fill="#6959CB" stroke="#2E353A" stroke-linecap="round" stroke-linejoin="round"/>
<path d="M479.475 340.311H476.359V364.855H479.475V340.311Z" fill="white" stroke="#2E353A" stroke-linecap="round" stroke-linejoin="round"/>
<path d="M491.915 332.365H488.8V364.855H491.915V332.365Z" fill="#2E353A" stroke="#2E353A" stroke-linecap="round" stroke-linejoin="round"/>
<path d="M497.439 337.206H494.324V364.855H497.439V337.206Z" fill="#6959CB" stroke="#2E353A" stroke-linecap="round" stroke-linejoin="round"/>
<path d="M502.976 351.025H499.86V364.855H502.976V351.025Z" fill="white" stroke="#2E353A" stroke-linecap="round" stroke-linejoin="round"/>
<path d="M515.416 340.311H512.301V364.855H515.416V340.311Z" fill="#2E353A" stroke="#2E353A" stroke-linecap="round" stroke-linejoin="round"/>
<path d="M520.941 328.565H517.826V364.855H520.941V328.565Z" fill="#6959CB" stroke="#2E353A" stroke-linecap="round" stroke-linejoin="round"/>
<path d="M526.477 340.311H523.361V364.855H526.477V340.311Z" fill="white" stroke="#2E353A" stroke-linecap="round" stroke-linejoin="round"/>
<path opacity="0.4" d="M443.185 285.035L477.727 310.885V274.79L443.185 140V285.035Z" fill="#6959CB" stroke="white" stroke-linecap="round" stroke-linejoin="round"/>
<path opacity="0.4" d="M477.727 310.886H365.377L183.072 285.035H443.185L477.727 310.886Z" fill="#6959CB" stroke="white" stroke-linecap="round" stroke-linejoin="round"/>
<path d="M443.185 140H183.072V270.735H443.185V140Z" fill="#1E1E25" stroke="#2E353A" stroke-linecap="round" stroke-linejoin="round"/>
<path d="M193.102 146.782H242.812" stroke="white" stroke-width="2" stroke-linecap="round" stroke-linejoin="round"/>
<path d="M436.567 146.169C436.567 145.494 436.367 144.834 435.991 144.273C435.616 143.712 435.083 143.274 434.459 143.016C433.835 142.759 433.148 142.692 432.486 142.824C431.824 142.956 431.216 143.282 430.74 143.761C430.263 144.239 429.939 144.847 429.808 145.51C429.678 146.172 429.747 146.858 430.007 147.482C430.267 148.105 430.705 148.637 431.268 149.011C431.83 149.384 432.491 149.582 433.166 149.58C433.613 149.58 434.056 149.492 434.47 149.321C434.883 149.149 435.258 148.898 435.574 148.581C435.89 148.264 436.141 147.888 436.311 147.474C436.481 147.06 436.568 146.617 436.567 146.169Z" fill="white"/>
<path d="M421.992 146.169C421.99 145.497 421.789 144.84 421.414 144.282C421.039 143.724 420.507 143.29 419.885 143.034C419.263 142.778 418.58 142.712 417.921 142.845C417.262 142.977 416.657 143.302 416.182 143.778C415.707 144.254 415.384 144.86 415.254 145.52C415.124 146.179 415.192 146.862 415.449 147.483C415.707 148.104 416.143 148.635 416.702 149.008C417.261 149.381 417.918 149.58 418.591 149.58C419.038 149.58 419.481 149.492 419.895 149.321C420.308 149.149 420.683 148.898 420.999 148.581C421.315 148.264 421.565 147.888 421.736 147.474C421.906 147.06 421.993 146.617 421.992 146.169Z" fill="white"/>
<path d="M443.185 154.299H183.072V285.035H443.185V154.299Z" fill="white" stroke="#2E353A" stroke-linecap="round" stroke-linejoin="round"/>
<path d="M430.928 167.924H201.457V272.778H430.244" stroke="#2E353A" stroke-width="0.5" stroke-linecap="round" stroke-linejoin="round"/>
<path d="M202.141 197.81H431.602" stroke="#2E353A" stroke-width="0.5" stroke-linecap="round" stroke-linejoin="round"/>
<path d="M202.141 227.634H431.602" stroke="#2E353A" stroke-width="0.5" stroke-linecap="round" stroke-linejoin="round"/>
<path d="M202.141 257.458H431.602" stroke="#2E353A" stroke-width="0.5" stroke-linecap="round" stroke-linejoin="round"/>
<path d="M197.371 168.598H191.243" stroke="#2E353A" stroke-width="0.5" stroke-linecap="round" stroke-linejoin="round"/>
<path d="M197.371 183.388H191.243" stroke="#2E353A" stroke-width="0.5" stroke-linecap="round" stroke-linejoin="round"/>
<path d="M197.371 198.177H191.243" stroke="#2E353A" stroke-width="0.5" stroke-linecap="round" stroke-linejoin="round"/>
<path d="M197.371 212.956H191.243" stroke="#2E353A" stroke-width="0.5" stroke-linecap="round" stroke-linejoin="round"/>
<path d="M197.371 227.746H191.243" stroke="#2E353A" stroke-width="0.5" stroke-linecap="round" stroke-linejoin="round"/>
<path d="M197.371 242.525H191.243" stroke="#2E353A" stroke-width="0.5" stroke-linecap="round" stroke-linejoin="round"/>
<path d="M197.371 257.315H191.243" stroke="#2E353A" stroke-width="0.5" stroke-linecap="round" stroke-linejoin="round"/>
<path d="M197.371 272.104H191.243" stroke="#2E353A" stroke-width="0.5" stroke-linecap="round" stroke-linejoin="round"/>
<path d="M203.163 198.361C203.163 198.361 223.243 199.239 227.329 196.523C231.414 193.806 236.868 188.352 240.269 189.026C243.957 189.98 247.594 191.118 251.167 192.437C251.167 192.437 259.338 187.667 261.381 187.667C263.424 187.667 270.226 191.068 275.68 191.068H291.338L297.466 195.838L309.038 192.437L321.979 197.881L330.15 196.523L341.722 202.651H347.176L358.064 207.41H372.363L380.534 212.18L393.475 212.865L403.689 223.078L411.86 221.71L420.715 225.121L428.886 224.437" stroke="#6959CB" stroke-width="3" stroke-linecap="round" stroke-linejoin="round"/>
<path d="M202.815 201.967H228.013L242.996 204.009L255.253 204.694L266.14 212.18L281.808 207.41L300.867 214.223L321.979 210.822L329.465 214.223L346.492 195.154H363.518L373.732 184.266L384.619 189.026L391.432 182.898L400.287 187.667L405.731 180.855L409.132 181.539L417.988 178.812L422.073 181.539L428.886 180.181" stroke="#2E353A" stroke-width="3" stroke-linecap="round" stroke-linejoin="round"/>
<path d="M203.5 268.693H230.056L250.483 257.121L265.467 263.933H276.354L281.808 265.976L294.065 259.848L310.407 249.634L315.851 257.121L326.064 255.762L331.508 257.121L345.133 257.805L360.107 245.548L367.604 254.393L377.133 253.719L382.577 257.121L390.748 255.078L401.646 259.163L416.629 257.121L424.8 258.479L429.56 257.121" stroke="#6959CB" stroke-width="3" stroke-linecap="round" stroke-linejoin="round"/>
<path opacity="0.4" d="M366.062 294.574L426.659 320.415V366.04L366.062 432.112V294.574Z" fill="#6959CB" stroke="white" stroke-linecap="round" stroke-linejoin="round"/>
<path d="M366.061 294.574H232.098V425.31H366.061V294.574Z" fill="#1E1E25" stroke="#2E353A" stroke-linecap="round" stroke-linejoin="round"/>
<path d="M366.061 308.873H232.098V432.122H366.061V308.873Z" fill="white" stroke="#2E353A" stroke-linecap="round" stroke-linejoin="round"/>
<path d="M298.119 369.992L245.008 369.941C244.918 362.8 246.315 355.719 249.111 349.148C251.907 342.576 256.04 336.659 261.248 331.772L298.119 369.992Z" fill="#1E1E25" stroke="white" stroke-miterlimit="10"/>
<path d="M298.119 369.992L284.33 421.255C272.991 418.317 262.962 411.669 255.841 402.369C248.72 393.069 244.917 381.654 245.038 369.941L298.119 369.992Z" fill="#1E1E25" stroke="white" stroke-miterlimit="10"/>
<path d="M300.499 371.483L325.471 324.633C336.946 330.791 345.759 340.951 350.234 353.181C354.709 365.411 354.535 378.859 349.745 390.968C344.954 403.078 335.881 413.006 324.25 418.865C312.62 424.724 299.242 426.105 286.659 422.746L300.499 371.483Z" fill="#6959CB" stroke="white" stroke-miterlimit="10"/>
<path d="M298.119 369.992L295.392 316.973C305.02 316.33 314.632 318.456 323.091 323.101L298.119 369.992Z" fill="#1E1E25" stroke="white" stroke-miterlimit="10"/>
<path d="M298.119 369.992L261.278 331.773C270.344 322.666 282.549 317.371 295.392 316.973L298.119 369.992Z" fill="#1E1E25" stroke="white" stroke-miterlimit="10"/>
<path d="M360.606 302.03C360.606 301.358 360.407 300.7 360.033 300.141C359.659 299.581 359.128 299.145 358.506 298.888C357.885 298.631 357.201 298.563 356.541 298.694C355.882 298.826 355.276 299.15 354.8 299.625C354.324 300.101 354 300.707 353.869 301.367C353.738 302.026 353.805 302.71 354.063 303.332C354.32 303.953 354.756 304.484 355.315 304.858C355.875 305.232 356.532 305.431 357.205 305.431C357.652 305.431 358.094 305.343 358.506 305.172C358.919 305.002 359.294 304.751 359.61 304.435C359.926 304.119 360.176 303.744 360.347 303.332C360.518 302.919 360.606 302.477 360.606 302.03Z" fill="white"/>
<path d="M346.042 302.03C346.044 301.355 345.846 300.694 345.473 300.132C345.099 299.57 344.567 299.131 343.944 298.871C343.32 298.611 342.634 298.542 341.972 298.673C341.309 298.803 340.701 299.127 340.223 299.604C339.744 300.081 339.418 300.689 339.286 301.351C339.154 302.013 339.221 302.699 339.478 303.323C339.736 303.947 340.174 304.48 340.735 304.856C341.296 305.231 341.956 305.431 342.631 305.431C343.534 305.431 344.4 305.073 345.04 304.436C345.679 303.798 346.04 302.933 346.042 302.03Z" fill="white"/>
<g style="mix-blend-mode:multiply" opacity="0.73">
<path d="M366.061 308.873H232.098V324.674H366.061V308.873Z" fill="#6959CB"/>
<path d="M366.061 308.873H232.098V324.674H366.061V308.873Z" stroke="white" stroke-linecap="round" stroke-linejoin="round"/>
</g>
<defs>
<filter id="filter0_f_222_378" x="0.532227" y="0.5" width="782.468" height="623.5" filterUnits="userSpaceOnUse" color-interpolation-filters="sRGB">
<feFlood flood-opacity="0" result="BackgroundImageFix"/>
<feBlend mode="normal" in="SourceGraphic" in2="BackgroundImageFix" result="shape"/>
<feGaussianBlur stdDeviation="75" result="effect1_foregroundBlur_222_378"/>
</filter>
</defs>
</svg>
