<svg width="626" height="586" viewBox="0 0 626 586" fill="none" xmlns="http://www.w3.org/2000/svg">
<g opacity="0.5">
<g filter="url(#filter0_f_222_377)">
<path d="M291.611 100.717C291.611 100.717 210.3 104.205 157.802 162.531C105.303 220.857 103.86 300.574 100.663 365.095C97.4659 429.617 142.139 478.49 207.576 484.929C273.012 491.367 290.665 441.82 364.089 413.927C437.512 386.034 461.994 388.036 505.909 330.764C549.824 273.492 519.108 185.461 439.477 140.307C359.846 95.1536 291.611 100.717 291.611 100.717Z" fill="#6959CB"/>
</g>
</g>
<path d="M401.787 137.734H260.293C254.245 137.734 249.343 142.636 249.343 148.684V417.533C249.343 423.58 254.245 428.483 260.293 428.483H401.787C407.835 428.483 412.737 423.58 412.737 417.533V148.684C412.737 142.636 407.835 137.734 401.787 137.734Z" fill="#1E1E25" stroke="#1E1E25" stroke-linecap="round" stroke-linejoin="round"/>
<path d="M294.347 154.282H272.88C272.014 154.282 271.185 153.938 270.573 153.327C269.961 152.715 269.617 151.885 269.617 151.02C269.617 150.155 269.961 149.325 270.573 148.713C271.185 148.101 272.014 147.758 272.88 147.758H294.347C295.211 147.76 296.038 148.105 296.647 148.717C297.257 149.328 297.599 150.156 297.599 151.02C297.599 151.883 297.257 152.712 296.647 153.323C296.038 153.935 295.211 154.279 294.347 154.282Z" stroke="white" stroke-miterlimit="10" stroke-linecap="round"/>
<path d="M325.961 154.282H304.504C303.638 154.282 302.809 153.938 302.197 153.327C301.585 152.715 301.241 151.885 301.241 151.02C301.241 150.155 301.585 149.325 302.197 148.713C302.809 148.101 303.638 147.758 304.504 147.758H325.961C326.826 147.758 327.656 148.101 328.268 148.713C328.879 149.325 329.223 150.155 329.223 151.02C329.223 151.885 328.879 152.715 328.268 153.327C327.656 153.938 326.826 154.282 325.961 154.282Z" stroke="white" stroke-miterlimit="10" stroke-linecap="round"/>
<path d="M357.586 154.282H336.15C335.722 154.282 335.298 154.198 334.903 154.034C334.507 153.87 334.148 153.629 333.846 153.326C333.544 153.023 333.305 152.663 333.142 152.267C332.979 151.872 332.896 151.448 332.897 151.02C332.896 150.592 332.979 150.168 333.142 149.772C333.305 149.376 333.544 149.017 333.846 148.714C334.148 148.411 334.507 148.17 334.903 148.006C335.298 147.842 335.722 147.758 336.15 147.758H357.617C358.045 147.758 358.469 147.842 358.864 148.006C359.259 148.17 359.618 148.411 359.92 148.714C360.222 149.017 360.462 149.376 360.625 149.772C360.787 150.168 360.87 150.592 360.869 151.02C360.871 151.45 360.786 151.877 360.622 152.275C360.457 152.672 360.215 153.034 359.909 153.337C359.604 153.641 359.241 153.88 358.843 154.043C358.444 154.205 358.017 154.286 357.586 154.282Z" stroke="white" stroke-miterlimit="10" stroke-linecap="round"/>
<path d="M389.201 154.282H367.744C366.879 154.282 366.049 153.938 365.437 153.327C364.825 152.715 364.481 151.885 364.481 151.02C364.481 150.155 364.825 149.325 365.437 148.713C366.049 148.101 366.879 147.758 367.744 147.758H389.201C390.066 147.758 390.896 148.101 391.508 148.713C392.12 149.325 392.463 150.155 392.463 151.02C392.463 151.885 392.12 152.715 391.508 153.327C390.896 153.938 390.066 154.282 389.201 154.282Z" stroke="white" stroke-miterlimit="10" stroke-linecap="round"/>
<path d="M309.197 290.775V281.245L300.934 286.01L309.197 290.775Z" fill="white"/>
<path d="M299.688 281.009H298.186V290.755H299.688V281.009Z" fill="white"/>
<path d="M352.895 290.775L361.148 286.01L352.895 281.245V290.775Z" fill="white"/>
<path d="M363.895 281.009H362.393V290.755H363.895V281.009Z" fill="white"/>
<path d="M331.529 272.158C329.017 272.158 326.562 272.903 324.473 274.298C322.385 275.694 320.757 277.677 319.796 279.998C318.835 282.318 318.583 284.872 319.073 287.335C319.563 289.799 320.773 292.061 322.549 293.838C324.325 295.614 326.588 296.823 329.051 297.313C331.514 297.803 334.068 297.552 336.388 296.59C338.709 295.629 340.692 294.002 342.088 291.913C343.483 289.825 344.228 287.369 344.228 284.858C344.229 283.19 343.902 281.538 343.264 279.996C342.626 278.455 341.691 277.054 340.511 275.875C339.332 274.695 337.931 273.76 336.39 273.122C334.849 272.484 333.197 272.157 331.529 272.158ZM329.728 291.547H325.951V278.168H329.728V291.547ZM337.106 291.547H333.33V278.168H337.106V291.547Z" fill="white"/>
<path d="M338.114 234.993C355.429 231.088 366.3 213.885 362.395 196.57C358.489 179.254 341.287 168.383 323.971 172.289C306.656 176.194 295.785 193.397 299.69 210.712C303.596 228.027 320.798 238.898 338.114 234.993Z" fill="#E4AB7F"/>
<path d="M345.164 181.914C345.166 181.59 345.092 181.271 344.947 180.981C344.802 180.691 344.591 180.44 344.331 180.247C344.071 180.05 343.769 179.918 343.449 179.861C343.129 179.804 342.8 179.823 342.488 179.918L320.609 186.401C320.176 186.525 319.796 186.787 319.526 187.148C319.257 187.509 319.113 187.948 319.117 188.398V213.447C317.857 212.966 316.477 212.894 315.174 213.24C313.87 213.586 312.708 214.333 311.853 215.376C310.997 216.418 310.491 217.704 310.405 219.05C310.32 220.396 310.66 221.735 311.377 222.877C312.095 224.019 313.153 224.907 314.402 225.415C315.652 225.923 317.029 226.025 318.34 225.707C319.651 225.389 320.829 224.668 321.707 223.644C322.585 222.62 323.119 221.346 323.233 220.002H323.326V200.891L341.037 195.643V206.706C340.315 206.424 339.548 206.278 338.773 206.274C337.499 206.274 336.254 206.651 335.194 207.359C334.135 208.067 333.309 209.073 332.821 210.251C332.334 211.428 332.206 212.723 332.455 213.973C332.703 215.223 333.317 216.37 334.218 217.271C335.119 218.172 336.267 218.786 337.516 219.035C338.766 219.283 340.061 219.156 341.239 218.668C342.416 218.18 343.422 217.355 344.13 216.295C344.838 215.236 345.216 213.99 345.216 212.716C345.216 212.716 345.216 212.644 345.216 212.613L345.164 181.914ZM340.996 191.3L323.285 196.548V189.952L340.996 184.703V191.3Z" fill="#1E1E25"/>
<path d="M315.773 249.343H344.939" stroke="white" stroke-width="2" stroke-miterlimit="10" stroke-linecap="round"/>
<path d="M308.229 255.178H352.482" stroke="white" stroke-width="2" stroke-miterlimit="10" stroke-linecap="round"/>
<path d="M386.69 333.309C390.498 333.309 393.585 330.222 393.585 326.414C393.585 322.606 390.498 319.519 386.69 319.519C382.882 319.519 379.795 322.606 379.795 326.414C379.795 330.222 382.882 333.309 386.69 333.309Z" fill="white"/>
<path d="M383.736 331.292L391.99 326.517L383.736 321.752V331.292Z" fill="#1E1E25"/>
<path d="M268.506 326.877H298.351" stroke="white" stroke-width="2" stroke-miterlimit="10" stroke-linecap="round"/>
<path d="M268.506 321.217H289.088" stroke="white" stroke-width="2" stroke-miterlimit="10" stroke-linecap="round"/>
<path d="M307.098 327.721H373.991" stroke="white" stroke-miterlimit="10" stroke-linecap="round"/>
<path d="M386.69 353.892C390.498 353.892 393.585 350.805 393.585 346.996C393.585 343.188 390.498 340.101 386.69 340.101C382.882 340.101 379.795 343.188 379.795 346.996C379.795 350.805 382.882 353.892 386.69 353.892Z" fill="white"/>
<path d="M383.736 351.874L391.99 347.099L383.736 342.334V351.874Z" fill="#1E1E25"/>
<path d="M268.506 347.46H298.351" stroke="white" stroke-width="2" stroke-miterlimit="10" stroke-linecap="round"/>
<path d="M268.506 341.799H289.088" stroke="white" stroke-width="2" stroke-miterlimit="10" stroke-linecap="round"/>
<path d="M307.098 348.303H373.991" stroke="white" stroke-miterlimit="10" stroke-linecap="round"/>
<path d="M386.69 374.474C390.498 374.474 393.585 371.387 393.585 367.579C393.585 363.771 390.498 360.684 386.69 360.684C382.882 360.684 379.795 363.771 379.795 367.579C379.795 371.387 382.882 374.474 386.69 374.474Z" fill="white"/>
<path d="M383.736 372.457L391.99 367.682L383.736 362.917V372.457Z" fill="#1E1E25"/>
<path d="M268.506 368.042H298.351" stroke="white" stroke-width="2" stroke-miterlimit="10" stroke-linecap="round"/>
<path d="M268.506 362.382H289.088" stroke="white" stroke-width="2" stroke-miterlimit="10" stroke-linecap="round"/>
<path d="M307.098 368.886H373.991" stroke="white" stroke-miterlimit="10" stroke-linecap="round"/>
<path d="M386.69 395.057C390.498 395.057 393.585 391.97 393.585 388.161C393.585 384.353 390.498 381.266 386.69 381.266C382.882 381.266 379.795 384.353 379.795 388.161C379.795 391.97 382.882 395.057 386.69 395.057Z" fill="white"/>
<path d="M383.736 393.04L391.99 388.264L383.736 383.5V393.04Z" fill="#1E1E25"/>
<path d="M268.506 388.625H298.351" stroke="white" stroke-width="2" stroke-miterlimit="10" stroke-linecap="round"/>
<path d="M268.506 382.964H289.088" stroke="white" stroke-width="2" stroke-miterlimit="10" stroke-linecap="round"/>
<path d="M307.098 389.468H373.991" stroke="white" stroke-miterlimit="10" stroke-linecap="round"/>
<path d="M386.69 415.639C390.498 415.639 393.585 412.552 393.585 408.744C393.585 404.936 390.498 401.849 386.69 401.849C382.882 401.849 379.795 404.936 379.795 408.744C379.795 412.552 382.882 415.639 386.69 415.639Z" fill="white"/>
<path d="M383.736 413.622L391.99 408.847L383.736 404.082V413.622Z" fill="#1E1E25"/>
<path d="M268.506 409.207H298.351" stroke="white" stroke-width="2" stroke-miterlimit="10" stroke-linecap="round"/>
<path d="M268.506 403.547H289.088" stroke="white" stroke-width="2" stroke-miterlimit="10" stroke-linecap="round"/>
<path d="M307.098 410.051H373.991" stroke="white" stroke-miterlimit="10" stroke-linecap="round"/>
<path d="M379.61 163.678H282.471V266.457H379.61V163.678Z" stroke="#E4AB7F" stroke-miterlimit="10"/>
<path d="M269.112 310.359H392.978" stroke="#E4AB7F" stroke-miterlimit="10"/>
<path d="M462.342 395.983C459.735 398.99 457.98 402.639 457.258 406.552L447.049 412.305V385.228L447.245 385.496L463.505 373.599C465.563 373.918 473.446 374.814 480.64 370.944C488.986 366.447 495.048 351.041 495.048 351.041C495.048 351.041 475.144 348.797 468.404 357.144C464.714 361.476 462.747 367.015 462.877 372.704L447.049 384.313V364.337C450.02 362.956 452.645 360.931 454.735 358.409C456.825 355.886 458.327 352.93 459.131 349.754C462.023 338.516 446.607 316.37 446.607 316.37C446.607 316.37 430.563 339.165 433.774 350.722C436.49 360.509 443.797 363.607 445.979 364.327V407.643L434.525 398.113C434.792 395.828 434.998 388.686 428.638 381.534C420.93 372.869 400.389 373.507 400.389 373.507C400.389 373.507 409.054 390.848 416.433 396.621C422.885 401.674 431.787 399.616 433.928 399.008L445.969 409.042V422.215H428.082L435.379 467.878H457.279L464.586 422.246H447.09V413.54L458.298 407.252C461.025 408.003 468.651 409.567 475.865 405.965C484.849 401.468 492.238 391.835 492.238 391.835C492.238 391.835 470.688 386.35 462.342 395.983Z" fill="#FF8C4B" fill-opacity="0.5"/>
<path opacity="0.4" d="M462.342 395.983C459.735 398.99 457.98 402.639 457.258 406.552L447.049 412.305V385.228L447.245 385.496L463.505 373.599C465.563 373.918 473.446 374.814 480.64 370.944C488.986 366.447 495.048 351.041 495.048 351.041C495.048 351.041 475.144 348.797 468.404 357.144C464.714 361.476 462.747 367.015 462.877 372.704L447.049 384.313V364.337C450.02 362.956 452.645 360.931 454.735 358.409C456.825 355.886 458.327 352.93 459.131 349.754C462.023 338.516 446.607 316.37 446.607 316.37C446.607 316.37 430.563 339.165 433.774 350.722C436.49 360.509 443.797 363.607 445.979 364.327V407.643L434.525 398.113C434.792 395.828 434.998 388.686 428.638 381.534C420.93 372.869 400.389 373.507 400.389 373.507C400.389 373.507 409.054 390.848 416.433 396.621C422.885 401.674 431.787 399.616 433.928 399.008L445.969 409.042V422.215H428.082L435.379 467.878H457.279L464.586 422.246H447.09V413.54L458.298 407.252C461.025 408.003 468.651 409.567 475.865 405.965C484.849 401.468 492.238 391.835 492.238 391.835C492.238 391.835 470.688 386.35 462.342 395.983Z" fill="white"/>
<path d="M233.3 204.864C233.948 208.229 232.415 211.358 229.873 211.852C227.331 212.346 224.727 210.009 224.079 206.644C223.431 203.279 224.954 200.15 227.506 199.656C230.058 199.162 232.641 201.499 233.3 204.864Z" fill="#1E1E25" stroke="#1E1E25" stroke-linecap="round" stroke-linejoin="round"/>
<path d="M208.806 216.627C208.806 216.627 208.302 224.006 208.137 227.196C208.105 228.663 207.936 230.124 207.633 231.559L216.36 236.705L219.859 224.674L208.806 216.627Z" stroke="#1E1E25" stroke-linecap="round" stroke-linejoin="round"/>
<path d="M219.859 186.926C216.248 185.735 212.37 185.617 208.693 186.586C202.817 187.924 199.626 193.461 199.122 200.336C198.618 207.21 204.33 215.268 206.007 217.121C207.685 218.973 213.386 224.16 218.418 226.517C223.451 228.873 226.651 225.487 228.823 221.649C230.994 217.81 230.665 211.913 230.665 206.047C230.665 200.562 229.07 194.727 225.303 190.61C223.818 188.955 221.948 187.69 219.859 186.926Z" fill="white" stroke="#1E1E25" stroke-linecap="round" stroke-linejoin="round"/>
<path d="M225.581 207.395C225.581 207.395 226.425 215.279 226.425 215.947C226.425 216.616 223.399 215.783 223.399 215.783" stroke="#1E1E25" stroke-linecap="round" stroke-linejoin="round"/>
<path d="M216.185 212.263C217.135 212.484 218.126 212.461 219.065 212.196C220.004 211.932 220.861 211.434 221.557 210.75" stroke="#1E1E25" stroke-linecap="round" stroke-linejoin="round"/>
<path d="M226.425 208.908C226.425 208.908 229.44 209.577 230.109 206.726" stroke="#1E1E25" stroke-linecap="round" stroke-linejoin="round"/>
<path d="M215.351 208.404C215.396 207.292 215.881 206.243 216.699 205.489C217.518 204.734 218.602 204.336 219.714 204.38" stroke="#1E1E25" stroke-linecap="round" stroke-linejoin="round"/>
<path d="M225.416 203.876C225.912 203.328 226.568 202.952 227.291 202.801C228.014 202.649 228.766 202.73 229.44 203.032" stroke="#1E1E25" stroke-linecap="round" stroke-linejoin="round"/>
<path d="M218.366 217.965C218.366 217.965 219.395 220.486 224.078 219.138" stroke="#1E1E25" stroke-linecap="round" stroke-linejoin="round"/>
<path d="M196.303 202.703C202.282 202.703 207.129 197.855 207.129 191.876C207.129 185.897 202.282 181.05 196.303 181.05C190.324 181.05 185.477 185.897 185.477 191.876C185.477 197.855 190.324 202.703 196.303 202.703Z" fill="#1E1E25" stroke="#1E1E25" stroke-linecap="round" stroke-linejoin="round"/>
<path d="M225.089 190.163C223.617 188.518 221.766 187.257 219.697 186.489C216.086 185.298 212.207 185.18 208.531 186.149C202.654 187.487 199.464 193.024 198.96 199.898C198.589 205.044 201.708 210.889 203.992 214.306C204.841 212.788 205.304 211.085 205.34 209.346C205.845 203.48 206.514 195.967 209.539 194.753C212.565 193.538 217.083 195.422 220.108 194.753C223.134 194.084 221.282 191.902 224.637 191.902C225.332 191.91 226.024 192.006 226.695 192.19C226.212 191.475 225.675 190.797 225.089 190.163Z" fill="#1E1E25" stroke="#1E1E25" stroke-linecap="round" stroke-linejoin="round"/>
<path d="M193.204 181.78C193.204 181.78 185.486 181.78 181.791 191.681" stroke="#1E1E25" stroke-linecap="round" stroke-linejoin="round"/>
<path d="M210.648 210.596C212.511 213.467 212.254 216.946 210.082 218.356C207.911 219.766 204.628 218.572 202.765 215.7C200.902 212.829 201.16 209.34 203.331 207.931C205.503 206.521 208.785 207.704 210.648 210.596Z" fill="#1E1E25" stroke="#1E1E25" stroke-linecap="round" stroke-linejoin="round"/>
<path d="M208.836 211.954C210.555 214.61 210.318 217.82 208.311 219.158C206.305 220.496 203.279 219.364 201.56 216.709C199.842 214.054 200.078 210.843 202.085 209.505C204.092 208.167 207.118 209.299 208.836 211.954Z" fill="white" stroke="#1E1E25" stroke-linecap="round" stroke-linejoin="round"/>
<path d="M203.331 207.92C203.331 207.92 200.244 196.991 205.451 190.621C210.659 184.25 218.377 185.897 218.377 185.897" stroke="white" stroke-linecap="round" stroke-linejoin="round"/>
<path d="M196.559 425.498C196.559 425.498 198.617 458.718 198.617 461.404C198.617 464.09 197.588 466.437 200.963 467.281C204.339 468.125 208.507 466.108 211.368 467.106C214.229 468.104 218.911 467.95 221.762 467.445C224.613 466.941 226.794 464.255 225.117 464.091C223.439 463.926 215.556 460.571 212.366 458.554C209.176 456.537 208.342 455.199 208.342 455.199L209.371 425.673L196.559 425.498Z" fill="white" stroke="#1E1E25" stroke-linecap="round" stroke-linejoin="round"/>
<path d="M225.077 464.091C223.399 463.926 215.516 460.571 212.326 458.554C209.135 456.537 208.302 455.199 208.302 455.199C208.302 455.199 206.12 456.372 206.244 457.885C206.348 458.791 206.516 459.689 206.748 460.571C203.93 460.602 201.127 460.163 198.453 459.274C198.453 460.303 198.535 461.085 198.535 461.404C198.535 464.091 197.506 466.437 200.882 467.281C204.257 468.125 208.425 466.108 211.286 467.106C214.147 468.104 218.83 467.95 221.68 467.445C224.531 466.941 226.754 464.255 225.077 464.091Z" fill="#1E1E25" stroke="#1E1E25" stroke-linecap="round" stroke-linejoin="round"/>
<path d="M225.571 464.307C222.769 465.713 219.658 466.39 216.525 466.272C214.004 466.108 209.321 464.595 204.783 465.603C202.669 466.029 200.476 465.814 198.484 464.986C198.639 466.015 199.215 466.849 200.923 467.281C204.278 468.114 208.467 466.108 211.328 467.106C214.189 468.104 218.871 467.95 221.722 467.445C224.171 467.013 226.106 464.986 225.571 464.307Z" fill="white" stroke="#1E1E25" stroke-linecap="round" stroke-linejoin="round"/>
<path d="M221.917 314.435C221.917 314.435 221.238 345.473 220.404 355.878C219.571 366.282 217.554 393.626 215.701 404.36C214.535 411.048 212.968 417.66 211.008 424.16C207.514 424.752 203.982 425.096 200.439 425.189C198.245 425.274 196.049 425.105 193.894 424.685C193.894 424.685 193.225 416.298 194.059 410.926C194.892 405.554 196.745 388.45 195.911 379.558C195.077 370.666 195.736 342.304 191.547 333.587C187.359 324.87 187.524 321.34 190.704 319.323C193.884 317.306 221.917 314.435 221.917 314.435Z" fill="#1E1E25" stroke="#1E1E25" stroke-linecap="round" stroke-linejoin="round"/>
<path d="M186.155 423.317L170.554 439.783C170.554 439.783 166.859 444.146 165.182 452.369C163.504 460.591 164.677 464.451 163.339 464.78C162.002 465.109 160.818 464.955 158.307 459.079C155.796 453.202 154.612 450.187 154.787 445.824C154.962 441.46 154.612 434.246 154.952 433.412C155.292 432.579 163.844 431.899 163.844 431.899L178.776 414.116L186.155 423.317Z" fill="white" stroke="#1E1E25" stroke-linecap="round" stroke-linejoin="round"/>
<path d="M164.347 438.589L163.524 431.899C162.001 432.033 155.291 432.64 154.951 433.392C154.612 434.143 154.951 441.439 154.786 445.803C154.622 450.166 155.816 453.182 158.306 459.058C160.797 464.934 162.001 465.099 163.339 464.759C164.676 464.42 163.503 460.571 165.181 452.348C166.858 444.125 170.553 439.762 170.553 439.762L170.635 439.68C169.854 439.379 169.038 439.182 168.206 439.093L164.347 438.589Z" fill="#1E1E25" stroke="#1E1E25" stroke-linecap="round" stroke-linejoin="round"/>
<path d="M162.845 464.852C160.153 459.973 158.331 454.662 157.462 449.158C156.799 443.713 156.551 438.226 156.721 432.743C155.692 432.939 155.044 433.155 154.951 433.392C154.612 434.225 154.951 441.439 154.786 445.803C154.622 450.166 155.816 453.182 158.306 459.058C160.508 464.204 161.682 464.965 162.845 464.852Z" fill="white" stroke="#1E1E25" stroke-linecap="round" stroke-linejoin="round"/>
<path d="M170.553 317.286C170.553 317.286 167.362 327.186 170.553 335.244C173.743 343.302 194.037 383.891 194.037 383.891L195.066 386.752L179.3 410.741C180.237 413.743 181.842 416.494 183.993 418.788C185.446 420.413 187.018 421.926 188.696 423.317C188.696 423.317 209.495 399.647 215.196 393.472C220.898 387.297 219.735 378.868 218.561 374.505C217.388 370.142 201.272 323.049 201.272 323.049C201.272 323.049 180.957 323.491 170.553 317.286Z" fill="#1E1E25" stroke="#1E1E25" stroke-linecap="round" stroke-linejoin="round"/>
<path d="M205.698 337.549L217.358 372.529" stroke="white" stroke-linecap="round" stroke-linejoin="round"/>
<path d="M203.465 330.849L204.587 334.225" stroke="white" stroke-linecap="round" stroke-linejoin="round"/>
<path d="M215.177 393.462L196.303 415.454" stroke="white" stroke-linecap="round" stroke-linejoin="round"/>
<path d="M170.718 311.924C170.718 311.924 167.868 316.452 169.545 319.128C171.223 321.803 182.636 325.302 192.186 325.302C201.736 325.302 222.216 318.757 222.72 315.063C223.225 311.368 223.06 309.526 222.72 309.022C222.381 308.517 219.026 314.064 198.021 314.229C177.017 314.394 170.718 311.924 170.718 311.924Z" fill="#E4AB7F" stroke="#1E1E25" stroke-linecap="round" stroke-linejoin="round"/>
<path d="M203.773 223.666C203.773 223.666 214.846 233.566 223.573 235.244L223.738 243.137C223.738 243.137 233.299 247.161 233.299 248.838C233.299 250.516 234.647 280.577 234.647 286.751C234.647 292.926 231.457 302.857 228.935 302.188C227.114 301.593 225.411 300.684 223.903 299.502C223.903 299.502 225.755 310.071 223.573 312.418C221.392 314.764 215.34 317.121 200.078 319.303C184.817 321.484 176.409 318.459 172.735 315.608C169.061 312.757 169.719 311.08 170.892 307.56C172.066 304.041 177.427 276.687 177.427 271.819C177.427 266.951 172.57 240.451 174.916 238.094C177.263 235.738 183.468 235.583 186.998 235.583C190.528 235.583 202.6 234.554 202.6 234.554L203.773 223.666Z" fill="#E4AB7F" stroke="#1E1E25" stroke-linecap="round" stroke-linejoin="round"/>
<path d="M223.883 288.192C223.883 288.192 223.883 269.874 225.684 262.968" stroke="#1E1E25" stroke-linecap="round" stroke-linejoin="round"/>
<path d="M249.241 272.827C248.743 271.649 248.126 270.524 247.399 269.472C246.215 267.795 243.2 268.968 242.695 270.985C242.191 273.002 247.224 273.496 249.241 272.827Z" fill="white" stroke="#1E1E25" stroke-linecap="round" stroke-linejoin="round"/>
<path d="M252.596 261.919C251.568 263.349 250.67 264.868 249.91 266.457C248.585 268.865 247.07 271.164 245.381 273.332L239.845 270.985C240.708 269.603 241.439 268.142 242.026 266.622C242.176 265.642 241.999 264.64 241.522 263.771C243.842 263.482 246.139 263.032 248.397 262.423C250.249 261.754 251.587 260.581 252.596 261.919Z" fill="white" stroke="#1E1E25" stroke-linecap="round" stroke-linejoin="round"/>
<path d="M245.721 240.451L234.977 264.944H247.727L258.966 240.955L245.721 240.451Z" fill="white" stroke="#1E1E25" stroke-linecap="round" stroke-linejoin="round"/>
<path d="M241.779 264.234C241.779 264.234 244.167 267.249 245.793 267.877C247.419 268.505 250.939 266.992 251.453 262.732C251.968 258.471 241.779 264.234 241.779 264.234Z" fill="white" stroke="#1E1E25" stroke-linecap="round" stroke-linejoin="round"/>
<path d="M254.036 256.814C254.036 256.814 257.659 252.173 256.496 250.876C255.333 249.579 246.946 249.425 246.369 250.876C245.793 252.327 247.234 252.615 248.685 252.759C250.136 252.903 252.441 252.903 252.441 252.903C252.488 253.807 252.289 254.707 251.865 255.507C251.865 255.507 248.386 255.507 244.342 255.507C236.634 255.569 237.683 257.39 239.124 257.823C241.369 258.233 243.645 258.443 245.927 258.45C247.005 258.527 248.073 258.707 249.117 258.986C249.117 258.986 241.79 258.79 238.887 259.078C235.985 259.366 237.858 259.562 237.858 259.994C237.858 260.426 237.797 261.589 240.678 261.847C241.617 261.917 242.559 261.917 243.498 261.847C243.498 261.847 239.186 261.98 239.052 262.948C238.918 263.915 240.318 264.594 242.489 264.594C244.661 264.594 249.868 265.469 251.319 264.018C252.77 262.567 253.203 261.847 253.203 259.963C253.194 258.858 253.481 257.77 254.036 256.814Z" fill="white" stroke="#1E1E25" stroke-linecap="round" stroke-linejoin="round"/>
<path d="M243.467 261.877C245.429 262.214 247.429 262.263 249.405 262.021Z" fill="white"/>
<path d="M243.467 261.877C245.429 262.214 247.429 262.263 249.405 262.021" stroke="#1E1E25" stroke-linecap="round" stroke-linejoin="round"/>
<path d="M240.184 269.308L237.827 272.158C237.827 272.158 232.97 271.819 230.448 273.332C227.927 274.844 225.92 284.24 224.572 286.916C223.224 289.592 223.543 301.519 224.747 303.382C225.951 305.245 231.457 306.233 235.985 302.878C240.513 299.523 247.058 288.47 247.563 283.921C248.067 279.373 247.058 276.203 247.223 275.688C247.847 274.695 248.534 273.742 249.281 272.838C249.281 272.838 243.703 272.344 240.184 269.308Z" fill="#E4AB7F" stroke="#1E1E25" stroke-linecap="round" stroke-linejoin="round"/>
<path d="M175.081 411.276C175.081 411.276 180.113 423.522 186.659 426.713L191.022 424.191C191.022 424.191 186.998 419.046 184.477 414.929C181.956 410.813 179.949 407.55 179.949 407.55C179.949 407.55 175.75 409.567 175.081 411.276Z" fill="white" stroke="#1E1E25" stroke-linecap="round" stroke-linejoin="round"/>
<path d="M192.865 422.318L192.7 426.342C192.7 426.342 200.254 428.853 204.278 428.524C208.302 428.195 213.17 425.683 213.17 425.683L212.83 421.649C206.433 424.079 199.41 424.314 192.865 422.318Z" fill="white" stroke="#1E1E25" stroke-linecap="round" stroke-linejoin="round"/>
<path d="M209.341 217.471C210.291 225.963 210.17 234.541 208.981 243.003C206.985 256.382 204.453 275.596 207.89 283.201C210.138 287.968 213.343 292.221 217.307 295.695" stroke="#1E1E25" stroke-linecap="round" stroke-linejoin="round"/>
<path d="M226.034 225.251C226.034 225.251 224.222 239.926 222.946 249.343C221.67 258.759 217.327 293.523 217.327 299.862C217.327 306.202 221.68 309.125 225.663 309.454C229.646 309.783 235.625 299.163 237.796 287.914C239.968 276.666 241.234 268.361 241.234 268.361L242.5 265.274" stroke="#1E1E25" stroke-linecap="round" stroke-linejoin="round"/>
<path d="M205.791 268.639C207.294 267.715 208.556 266.449 209.475 264.944C210.824 262.598 213.005 255.548 213.839 254.2C214.673 252.852 215.897 252.698 218.542 252.029C220.352 251.571 222.212 251.343 224.079 251.349C224.748 251.349 233.464 256.217 232.631 257.061C231.797 257.905 231.118 258.564 229.78 257.565C228.183 256.619 226.497 255.83 224.748 255.209C224.748 255.209 225.581 259.243 226.754 260.92C227.928 262.598 227.094 263.596 226.086 264.605C225.077 265.613 224.912 267.63 223.07 267.126C221.228 266.622 223.235 264.44 223.4 263.431C223.564 262.423 219.036 262.093 219.036 262.093C219.036 262.093 217.533 268.134 215.516 269.472C213.795 270.411 211.92 271.035 209.98 271.314L204.947 273.836L205.791 268.639Z" fill="white" stroke="#1E1E25" stroke-linecap="round" stroke-linejoin="round"/>
<path d="M226.753 260.92L219.21 258.903" stroke="#1E1E25" stroke-linecap="round" stroke-linejoin="round"/>
<path d="M225.581 258.739L218.871 256.217" stroke="#1E1E25" stroke-linecap="round" stroke-linejoin="round"/>
<path d="M224.747 255.209L218.037 253.871" stroke="#1E1E25" stroke-linecap="round" stroke-linejoin="round"/>
<path d="M206.459 265.109L208.97 277.52L199.245 281.05L197.567 268.135L206.459 265.109Z" fill="#E4AB7F" stroke="#1E1E25" stroke-linecap="round" stroke-linejoin="round"/>
<path d="M197.568 268.135C197.568 268.135 192.701 264.944 191.692 265.109C190.684 265.274 179.61 271.994 179.61 271.994C179.61 271.994 181.967 258.739 180.639 252.029C179.312 245.319 176.276 237.425 174.938 238.094C173.6 238.763 167.734 245.648 165.038 256.382C162.341 267.116 160.839 274.165 160.839 280.381C160.839 286.597 162.022 296.652 164.533 296.312C167.044 295.972 192.217 289.437 196.58 285.918C200.944 282.398 199.266 281.05 199.266 281.05L197.568 268.135Z" fill="#E4AB7F" stroke="#1E1E25" stroke-linecap="round" stroke-linejoin="round"/>
<path d="M163.504 277.355C163.504 277.355 175.925 271.314 179.61 271.994C179.61 271.994 174.073 275.513 172.231 278.024" fill="#E4AB7F"/>
<path d="M163.504 277.355C163.504 277.355 175.925 271.314 179.61 271.994C179.61 271.994 174.073 275.513 172.231 278.024" stroke="#1E1E25" stroke-linecap="round" stroke-linejoin="round"/>
<path d="M179.61 271.994C179.61 271.994 175.082 264.1 171.377 261.425Z" fill="#E4AB7F"/>
<path d="M179.61 271.994C179.61 271.994 175.082 264.1 171.377 261.425" stroke="#1E1E25" stroke-linecap="round" stroke-linejoin="round"/>
<path d="M125.684 467.847H514.93" stroke="#393B54" stroke-linecap="round" stroke-linejoin="round"/>
<defs>
<filter id="filter0_f_222_377" x="0.501953" y="0.5" width="625.498" height="585" filterUnits="userSpaceOnUse" color-interpolation-filters="sRGB">
<feFlood flood-opacity="0" result="BackgroundImageFix"/>
<feBlend mode="normal" in="SourceGraphic" in2="BackgroundImageFix" result="shape"/>
<feGaussianBlur stdDeviation="50" result="effect1_foregroundBlur_222_377"/>
</filter>
</defs>
</svg>
