<svg width="709" height="651" viewBox="0 0 709 651" fill="none" xmlns="http://www.w3.org/2000/svg">
<g opacity="0.75">
<g opacity="0.7" filter="url(#filter0_f_222_379)">
<path d="M427.236 154.893C427.236 154.893 360.022 135.099 293.631 175.135C227.24 215.171 193.436 289.816 164.4 349.719C135.363 409.622 151.451 468.289 201.754 492.933C252.057 517.577 286.648 475.912 357.478 470.476C428.307 465.04 447.286 473.88 506.301 432.408C565.316 390.935 576.545 299.296 530.634 234.159C484.723 169.022 427.236 154.893 427.236 154.893Z" fill="#FB9649"/>
</g>
</g>
<path d="M464.801 357.872C456.689 348.995 452.416 337.269 452.915 325.254C453.414 313.238 458.644 301.907 467.464 293.733" stroke="#1E1E25" stroke-miterlimit="10"/>
<path d="M532.181 357.698C524.792 365.863 514.695 371.074 503.759 372.367C492.824 373.661 481.79 370.95 472.699 364.736" stroke="#1E1E25" stroke-miterlimit="10"/>
<path d="M543.354 319.822C544.634 327.69 543.84 335.755 541.048 343.222" stroke="#1E1E25" stroke-miterlimit="10"/>
<path d="M473.971 288.709C479.814 284.995 486.426 282.661 493.306 281.885C500.186 281.109 507.152 281.911 513.675 284.23C520.199 286.549 526.108 290.324 530.954 295.269C535.8 300.214 539.456 306.198 541.643 312.767" stroke="#1E1E25" stroke-miterlimit="10"/>
<path d="M498.413 366.493C520.145 366.493 537.763 348.875 537.763 327.143C537.763 305.411 520.145 287.794 498.413 287.794C476.681 287.794 459.063 305.411 459.063 327.143C459.063 348.875 476.681 366.493 498.413 366.493Z" stroke="#1E1E25" stroke-miterlimit="10"/>
<path d="M525.446 314.121C523.598 310.316 520.966 306.944 517.722 304.228C514.479 301.511 510.698 299.512 506.627 298.36C502.556 297.209 498.288 296.931 494.102 297.546C489.916 298.161 485.908 299.654 482.341 301.928C478.773 304.202 475.727 307.204 473.401 310.738C471.076 314.273 469.525 318.259 468.85 322.435C468.174 326.612 468.39 330.884 469.482 334.971C470.575 339.058 472.519 342.867 475.188 346.15C478.922 340.494 496.263 316.894 525.446 314.121Z" fill="#1E1E25" stroke="#1E1E25" stroke-miterlimit="10"/>
<path d="M498.413 294.931C492.042 294.931 485.814 296.821 480.517 300.36C475.22 303.9 471.091 308.93 468.653 314.816C466.215 320.702 465.577 327.179 466.82 333.427C468.063 339.676 471.131 345.415 475.636 349.92C480.141 354.425 485.88 357.493 492.129 358.736C498.377 359.979 504.854 359.341 510.74 356.903C516.626 354.465 521.656 350.336 525.196 345.039C528.735 339.742 530.625 333.514 530.625 327.143C530.625 318.6 527.231 310.407 521.19 304.366C515.149 298.325 506.956 294.931 498.413 294.931ZM498.413 355.328C492.83 355.328 487.372 353.672 482.73 350.57C478.088 347.467 474.471 343.057 472.336 337.898C470.201 332.739 469.644 327.063 470.736 321.587C471.828 316.112 474.519 311.083 478.47 307.138C482.421 303.192 487.453 300.507 492.93 299.422C498.406 298.338 504.082 298.902 509.238 301.043C514.395 303.185 518.8 306.808 521.896 311.454C524.993 316.1 526.642 321.56 526.635 327.143C526.635 334.628 523.661 341.806 518.369 347.099C513.076 352.392 505.898 355.365 498.413 355.365V355.328Z" fill="#1E1E25" stroke="white" stroke-miterlimit="10"/>
<path d="M498.414 348.438C510.174 348.438 519.708 338.904 519.708 327.143C519.708 315.382 510.174 305.849 498.414 305.849C486.653 305.849 477.119 315.382 477.119 327.143C477.119 338.904 486.653 348.438 498.414 348.438Z" stroke="#1E1E25" stroke-miterlimit="10"/>
<path d="M498.413 342.48C506.884 342.48 513.751 335.614 513.751 327.143C513.751 318.673 506.884 311.806 498.413 311.806C489.943 311.806 483.076 318.673 483.076 327.143C483.076 335.614 489.943 342.48 498.413 342.48Z" stroke="#1E1E25" stroke-miterlimit="10"/>
<path d="M498.414 335.379C502.962 335.379 506.65 331.692 506.65 327.143C506.65 322.595 502.962 318.907 498.414 318.907C493.865 318.907 490.178 322.595 490.178 327.143C490.178 331.692 493.865 335.379 498.414 335.379Z" fill="#1E1E25" stroke="white" stroke-miterlimit="10"/>
<path d="M475.453 258.227C469.911 252.161 466.994 244.15 467.337 235.942C467.68 227.733 471.255 219.993 477.283 214.411" stroke="#1E1E25" stroke-miterlimit="10"/>
<path d="M521.483 258.108C516.437 263.686 509.54 267.247 502.07 268.132C494.6 269.017 487.063 267.166 480.853 262.921" stroke="#1E1E25" stroke-miterlimit="10"/>
<path d="M529.124 232.201C529.393 233.865 529.528 235.548 529.527 237.234C529.533 240.984 528.861 244.705 527.541 248.215" stroke="#1E1E25" stroke-miterlimit="10"/>
<path d="M481.713 210.98C485.706 208.44 490.226 206.845 494.929 206.316C499.632 205.787 504.393 206.337 508.851 207.926C513.309 209.514 517.346 212.098 520.654 215.482C523.963 218.865 526.456 222.959 527.944 227.452" stroke="#1E1E25" stroke-miterlimit="10"/>
<path d="M507.696 262.46C521.632 257.336 528.775 241.884 523.65 227.947C518.525 214.011 503.073 206.868 489.137 211.993C475.201 217.118 468.058 232.57 473.183 246.506C478.307 260.442 493.759 267.585 507.696 262.46Z" stroke="#1E1E25" stroke-miterlimit="10"/>
<path d="M516.88 228.312C515.626 225.699 513.833 223.381 511.617 221.513C509.402 219.644 506.816 218.266 504.029 217.47C501.242 216.674 498.318 216.478 495.45 216.895C492.582 217.312 489.835 218.333 487.39 219.889C484.945 221.446 482.859 223.503 481.267 225.926C479.676 228.348 478.617 231.08 478.159 233.942C477.701 236.804 477.855 239.731 478.611 242.528C479.368 245.326 480.708 247.932 482.546 250.174C485.099 246.348 496.949 230.224 516.88 228.312Z" fill="#1E1E25" stroke="#1E1E25" stroke-miterlimit="10"/>
<path d="M498.413 215.226C494.071 215.235 489.829 216.531 486.224 218.949C482.618 221.368 479.81 224.801 478.155 228.815C476.5 232.829 476.071 237.244 476.924 241.501C477.776 245.758 479.872 249.667 482.945 252.734C486.018 255.801 489.932 257.888 494.191 258.732C498.45 259.576 502.863 259.138 506.874 257.475C510.884 255.811 514.312 252.996 516.723 249.385C519.134 245.775 520.421 241.53 520.421 237.188C520.421 234.3 519.852 231.441 518.745 228.773C517.638 226.105 516.017 223.682 513.972 221.642C511.928 219.602 509.502 217.985 506.832 216.884C504.162 215.783 501.301 215.22 498.413 215.226ZM498.413 256.515C494.599 256.515 490.872 255.384 487.701 253.266C484.53 251.147 482.059 248.136 480.599 244.613C479.14 241.089 478.758 237.213 479.502 233.472C480.246 229.732 482.082 226.297 484.779 223.6C487.475 220.904 490.911 219.067 494.651 218.323C498.391 217.579 502.268 217.961 505.791 219.42C509.315 220.88 512.326 223.351 514.445 226.522C516.563 229.693 517.694 233.421 517.694 237.234C517.694 242.348 515.663 247.252 512.047 250.868C508.431 254.484 503.527 256.515 498.413 256.515Z" fill="#1E1E25" stroke="white" stroke-miterlimit="10"/>
<path d="M503.4 250.874C510.95 248.122 514.839 239.77 512.086 232.221C509.334 224.671 500.983 220.782 493.433 223.534C485.883 226.287 481.994 234.638 484.746 242.188C487.499 249.738 495.85 253.627 503.4 250.874Z" stroke="#1E1E25" stroke-miterlimit="10"/>
<path d="M498.414 247.712C504.2 247.712 508.891 243.021 508.891 237.234C508.891 231.447 504.2 226.756 498.414 226.756C492.627 226.756 487.936 231.447 487.936 237.234C487.936 243.021 492.627 247.712 498.414 247.712Z" stroke="#1E1E25" stroke-miterlimit="10"/>
<path d="M504.041 237.234C504.041 238.347 503.711 239.435 503.092 240.361C502.474 241.286 501.595 242.008 500.567 242.434C499.538 242.859 498.407 242.971 497.315 242.754C496.223 242.537 495.221 242.001 494.434 241.214C493.646 240.426 493.11 239.424 492.893 238.332C492.676 237.24 492.788 236.109 493.214 235.08C493.64 234.052 494.361 233.173 495.286 232.555C496.212 231.936 497.3 231.606 498.413 231.606C499.906 231.606 501.337 232.199 502.393 233.255C503.448 234.31 504.041 235.741 504.041 237.234Z" fill="#1E1E25" stroke="white" stroke-miterlimit="10"/>
<path d="M200.922 258.227C195.38 252.161 192.463 244.15 192.805 235.942C193.148 227.733 196.724 219.993 202.752 214.411" stroke="#1E1E25" stroke-miterlimit="10"/>
<path d="M246.952 258.108C241.906 263.686 235.009 267.247 227.539 268.132C220.069 269.017 212.531 267.166 206.321 262.921" stroke="#1E1E25" stroke-miterlimit="10"/>
<path d="M254.593 232.201C254.862 233.865 254.997 235.548 254.996 237.234C255.002 240.984 254.329 244.705 253.01 248.215" stroke="#1E1E25" stroke-miterlimit="10"/>
<path d="M207.181 210.98C211.174 208.44 215.694 206.845 220.397 206.316C225.099 205.787 229.861 206.337 234.319 207.926C238.777 209.514 242.814 212.098 246.122 215.482C249.431 218.865 251.924 222.959 253.412 227.452" stroke="#1E1E25" stroke-miterlimit="10"/>
<path d="M234.382 261.991C248.05 256.189 254.427 240.406 248.625 226.737C242.823 213.069 227.04 206.692 213.372 212.494C199.703 218.296 193.326 234.079 199.128 247.748C204.93 261.416 220.714 267.793 234.382 261.991Z" stroke="#1E1E25" stroke-miterlimit="10"/>
<path d="M242.348 228.312C241.094 225.699 239.3 223.381 237.085 221.513C234.87 219.644 232.284 218.266 229.497 217.47C226.71 216.674 223.786 216.478 220.918 216.895C218.05 217.312 215.303 218.333 212.858 219.889C210.413 221.446 208.326 223.503 206.735 225.926C205.144 228.348 204.084 231.08 203.626 233.942C203.169 236.804 203.323 239.731 204.079 242.528C204.835 245.326 206.176 247.932 208.013 250.174C210.567 246.348 222.417 230.224 242.348 228.312Z" fill="#1E1E25" stroke="#1E1E25" stroke-miterlimit="10"/>
<path d="M223.882 215.226C219.54 215.235 215.298 216.531 211.692 218.949C208.087 221.368 205.279 224.801 203.624 228.815C201.968 232.829 201.54 237.244 202.392 241.501C203.245 245.758 205.34 249.667 208.414 252.734C211.487 255.801 215.4 257.888 219.66 258.732C223.919 259.576 228.332 259.138 232.343 257.475C236.353 255.811 239.78 252.996 242.192 249.385C244.603 245.775 245.89 241.53 245.89 237.188C245.89 234.3 245.32 231.441 244.214 228.773C243.107 226.105 241.485 223.682 239.441 221.642C237.397 219.602 234.97 217.985 232.3 216.884C229.63 215.783 226.77 215.22 223.882 215.226ZM223.882 256.515C220.068 256.515 216.34 255.384 213.17 253.266C209.999 251.147 207.527 248.136 206.068 244.613C204.609 241.089 204.227 237.213 204.971 233.472C205.715 229.732 207.551 226.297 210.248 223.6C212.944 220.904 216.38 219.067 220.12 218.323C223.86 217.579 227.737 217.961 231.26 219.42C234.783 220.88 237.795 223.351 239.913 226.522C242.032 229.693 243.163 233.421 243.163 237.234C243.163 242.348 241.131 247.252 237.516 250.868C233.9 254.484 228.995 256.515 223.882 256.515Z" fill="#1E1E25" stroke="white" stroke-miterlimit="10"/>
<path d="M229.549 250.633C236.949 247.5 240.408 238.961 237.274 231.561C234.141 224.161 225.602 220.703 218.202 223.836C210.802 226.97 207.344 235.509 210.477 242.908C213.611 250.308 222.149 253.767 229.549 250.633Z" stroke="#1E1E25" stroke-miterlimit="10"/>
<path d="M223.882 247.712C229.669 247.712 234.36 243.021 234.36 237.234C234.36 231.447 229.669 226.756 223.882 226.756C218.095 226.756 213.404 231.447 213.404 237.234C213.404 243.021 218.095 247.712 223.882 247.712Z" stroke="#1E1E25" stroke-miterlimit="10"/>
<path d="M229.51 237.234C229.51 238.347 229.18 239.435 228.561 240.361C227.943 241.286 227.064 242.008 226.036 242.434C225.007 242.859 223.876 242.971 222.784 242.754C221.692 242.537 220.689 242.001 219.902 241.214C219.115 240.426 218.579 239.424 218.362 238.332C218.145 237.24 218.256 236.109 218.682 235.08C219.108 234.052 219.83 233.173 220.755 232.555C221.681 231.936 222.769 231.606 223.882 231.606C225.374 231.606 226.806 232.199 227.861 233.255C228.917 234.31 229.51 235.741 229.51 237.234Z" fill="#1E1E25" stroke="white" stroke-miterlimit="10"/>
<path d="M475.454 437.313C469.909 431.247 466.99 423.234 467.333 415.023C467.676 406.812 471.253 399.071 477.284 393.488" stroke="#1E1E25" stroke-miterlimit="10"/>
<path d="M521.483 437.194C516.436 442.771 509.539 446.33 502.069 447.213C494.599 448.097 487.062 446.244 480.853 441.998" stroke="#1E1E25" stroke-miterlimit="10"/>
<path d="M529.124 411.278C529.393 412.942 529.528 414.625 529.527 416.311C529.533 420.061 528.861 423.782 527.541 427.292" stroke="#1E1E25" stroke-miterlimit="10"/>
<path d="M481.713 390.057C485.706 387.517 490.226 385.922 494.929 385.393C499.632 384.864 504.393 385.414 508.851 387.003C513.309 388.591 517.346 391.175 520.654 394.559C523.963 397.942 526.456 402.036 527.944 406.528" stroke="#1E1E25" stroke-miterlimit="10"/>
<path d="M524.798 419.169C527.025 404.469 516.914 390.746 502.214 388.519C487.514 386.292 473.791 396.403 471.564 411.103C469.337 425.803 479.448 439.526 494.148 441.753C508.848 443.98 522.571 433.869 524.798 419.169Z" stroke="#1E1E25" stroke-width="1.0013" stroke-miterlimit="10"/>
<path d="M516.88 407.416C515.626 404.803 513.833 402.486 511.617 400.617C509.402 398.748 506.816 397.37 504.029 396.574C501.242 395.778 498.318 395.582 495.45 396C492.582 396.417 489.835 397.437 487.39 398.994C484.945 400.55 482.859 402.608 481.267 405.03C479.676 407.452 478.617 410.185 478.159 413.047C477.701 415.908 477.855 418.835 478.611 421.633C479.368 424.431 480.708 427.036 482.546 429.278C485.099 425.435 496.949 409.31 516.88 407.416Z" fill="#1E1E25" stroke="#1E1E25" stroke-miterlimit="10"/>
<path d="M498.413 394.303C494.058 394.301 489.8 395.591 486.178 398.009C482.555 400.428 479.732 403.867 478.064 407.89C476.397 411.914 475.96 416.341 476.809 420.613C477.659 424.885 479.756 428.809 482.835 431.889C485.915 434.969 489.839 437.066 494.111 437.915C498.383 438.764 502.811 438.327 506.834 436.66C510.858 434.992 514.296 432.169 516.715 428.547C519.133 424.925 520.423 420.666 520.422 416.311C520.422 410.474 518.103 404.876 513.976 400.749C509.848 396.621 504.25 394.303 498.413 394.303ZM498.413 435.592C494.6 435.592 490.872 434.461 487.701 432.343C484.53 430.224 482.059 427.213 480.6 423.69C479.14 420.166 478.759 416.29 479.503 412.549C480.247 408.809 482.083 405.374 484.779 402.677C487.476 399.981 490.912 398.144 494.652 397.4C498.392 396.656 502.269 397.038 505.792 398.497C509.315 399.957 512.326 402.428 514.445 405.599C516.564 408.77 517.695 412.498 517.695 416.311C517.695 421.425 515.663 426.329 512.047 429.945C508.431 433.561 503.527 435.592 498.413 435.592Z" fill="#1E1E25" stroke="white" stroke-miterlimit="10"/>
<path d="M512.771 418.488C513.987 410.545 508.533 403.12 500.589 401.905C492.646 400.689 485.221 406.143 484.006 414.087C482.79 422.03 488.244 429.455 496.187 430.67C504.131 431.886 511.556 426.432 512.771 418.488Z" stroke="#1E1E25" stroke-miterlimit="10"/>
<path d="M498.414 426.789C504.2 426.789 508.891 422.098 508.891 416.311C508.891 410.524 504.2 405.833 498.414 405.833C492.627 405.833 487.936 410.524 487.936 416.311C487.936 422.098 492.627 426.789 498.414 426.789Z" stroke="#1E1E25" stroke-miterlimit="10"/>
<path d="M504.041 416.311C504.041 417.424 503.711 418.512 503.092 419.438C502.474 420.363 501.595 421.084 500.567 421.51C499.538 421.936 498.407 422.048 497.315 421.831C496.223 421.614 495.221 421.078 494.434 420.29C493.646 419.503 493.11 418.501 492.893 417.409C492.676 416.317 492.788 415.186 493.214 414.157C493.64 413.129 494.361 412.25 495.286 411.632C496.212 411.013 497.3 410.683 498.413 410.683C499.906 410.683 501.337 411.276 502.393 412.331C503.448 413.387 504.041 414.818 504.041 416.311Z" fill="#1E1E25" stroke="white" stroke-miterlimit="10"/>
<path d="M200.921 437.313C195.377 431.247 192.458 423.234 192.801 415.023C193.143 406.812 196.721 399.071 202.752 393.488" stroke="#1E1E25" stroke-miterlimit="10"/>
<path d="M246.952 437.194C241.904 442.771 235.007 446.33 227.537 447.213C220.067 448.097 212.53 446.244 206.321 441.998" stroke="#1E1E25" stroke-miterlimit="10"/>
<path d="M254.593 411.278C254.862 412.942 254.996 414.625 254.996 416.311C255.002 420.061 254.329 423.782 253.01 427.292" stroke="#1E1E25" stroke-miterlimit="10"/>
<path d="M207.181 390.057C211.174 387.517 215.694 385.922 220.397 385.393C225.099 384.864 229.861 385.414 234.319 387.003C238.777 388.591 242.814 391.175 246.122 394.559C249.431 397.942 251.924 402.036 253.412 406.528" stroke="#1E1E25" stroke-miterlimit="10"/>
<path d="M250.412 420.679C252.817 406.026 242.888 392.198 228.235 389.794C213.583 387.389 199.755 397.318 197.35 411.97C194.945 426.623 204.874 440.451 219.527 442.855C234.18 445.26 248.007 435.331 250.412 420.679Z" stroke="#1E1E25" stroke-miterlimit="10"/>
<path d="M242.348 407.416C241.094 404.803 239.3 402.486 237.085 400.617C234.87 398.748 232.284 397.37 229.497 396.574C226.71 395.778 223.786 395.582 220.918 396C218.05 396.417 215.303 397.437 212.858 398.994C210.413 400.55 208.326 402.608 206.735 405.03C205.144 407.452 204.084 410.185 203.626 413.047C203.169 415.908 203.323 418.835 204.079 421.633C204.835 424.431 206.176 427.036 208.013 429.278C210.567 425.435 222.417 409.31 242.348 407.416Z" fill="#1E1E25" stroke="#1E1E25" stroke-miterlimit="10"/>
<path d="M223.882 394.303C219.527 394.301 215.269 395.591 211.646 398.009C208.024 400.428 205.201 403.867 203.533 407.89C201.866 411.914 201.429 416.341 202.278 420.613C203.127 424.885 205.224 428.809 208.304 431.889C211.384 434.969 215.308 437.066 219.58 437.915C223.852 438.764 228.279 438.327 232.303 436.66C236.326 434.992 239.765 432.169 242.184 428.547C244.602 424.925 245.892 420.666 245.89 416.311C245.89 410.474 243.572 404.876 239.444 400.749C235.317 396.621 229.719 394.303 223.882 394.303ZM223.882 435.592C220.069 435.592 216.341 434.461 213.17 432.343C209.999 430.224 207.528 427.213 206.068 423.69C204.609 420.166 204.227 416.29 204.971 412.549C205.715 408.809 207.552 405.374 210.248 402.677C212.945 399.981 216.38 398.144 220.12 397.4C223.861 396.656 227.737 397.038 231.261 398.497C234.784 399.957 237.795 402.428 239.914 405.599C242.033 408.77 243.163 412.498 243.163 416.311C243.163 421.425 241.132 426.329 237.516 429.945C233.9 433.561 228.996 435.592 223.882 435.592Z" fill="#1E1E25" stroke="white" stroke-miterlimit="10"/>
<path d="M238.241 418.679C239.541 410.749 234.166 403.266 226.236 401.966C218.306 400.666 210.824 406.041 209.524 413.971C208.224 421.901 213.598 429.383 221.528 430.683C229.458 431.983 236.941 426.608 238.241 418.679Z" stroke="#1E1E25" stroke-miterlimit="10"/>
<path d="M223.882 426.789C229.669 426.789 234.36 422.098 234.36 416.311C234.36 410.524 229.669 405.833 223.882 405.833C218.095 405.833 213.404 410.524 213.404 416.311C213.404 422.098 218.095 426.789 223.882 426.789Z" stroke="#1E1E25" stroke-miterlimit="10"/>
<path d="M229.51 416.311C229.51 417.424 229.18 418.512 228.561 419.438C227.943 420.363 227.064 421.084 226.036 421.51C225.007 421.936 223.876 422.048 222.784 421.831C221.692 421.614 220.689 421.078 219.902 420.29C219.115 419.503 218.579 418.501 218.362 417.409C218.145 416.317 218.256 415.186 218.682 414.157C219.108 413.129 219.83 412.25 220.755 411.632C221.681 411.013 222.769 410.683 223.882 410.683C225.374 410.683 226.806 411.276 227.861 412.331C228.917 413.387 229.51 414.818 229.51 416.311Z" fill="#1E1E25" stroke="white" stroke-miterlimit="10"/>
<path d="M190.27 357.872C182.158 348.995 177.885 337.269 178.384 325.254C178.883 313.238 184.113 301.907 192.933 293.733" stroke="#1E1E25" stroke-miterlimit="10"/>
<path d="M257.649 357.698C250.259 365.863 240.163 371.074 229.227 372.367C218.292 373.661 207.258 370.95 198.167 364.736" stroke="#1E1E25" stroke-miterlimit="10"/>
<path d="M268.823 319.822C270.103 327.69 269.308 335.755 266.517 343.222" stroke="#1E1E25" stroke-miterlimit="10"/>
<path d="M199.439 288.709C205.284 284.986 211.9 282.645 218.785 281.864C225.671 281.083 232.643 281.883 239.173 284.203C245.702 286.522 251.617 290.301 256.466 295.251C261.315 300.2 264.972 306.191 267.157 312.767" stroke="#1E1E25" stroke-miterlimit="10"/>
<path d="M223.882 366.493C245.614 366.493 263.231 348.875 263.231 327.143C263.231 305.411 245.614 287.794 223.882 287.794C202.15 287.794 184.532 305.411 184.532 327.143C184.532 348.875 202.15 366.493 223.882 366.493Z" stroke="#1E1E25" stroke-miterlimit="10"/>
<path d="M250.914 314.121C249.066 310.316 246.433 306.944 243.19 304.228C239.947 301.511 236.166 299.512 232.095 298.36C228.024 297.209 223.756 296.931 219.57 297.546C215.384 298.161 211.376 299.654 207.808 301.928C204.241 304.202 201.194 307.204 198.869 310.738C196.544 314.273 194.993 318.259 194.317 322.435C193.642 326.612 193.858 330.884 194.95 334.971C196.042 339.058 197.987 342.867 200.656 346.15C204.39 340.494 221.731 316.894 250.914 314.121Z" fill="#1E1E25" stroke="#1E1E25" stroke-miterlimit="10"/>
<path d="M223.882 294.931C217.511 294.931 211.283 296.821 205.986 300.36C200.689 303.9 196.56 308.93 194.122 314.816C191.684 320.702 191.046 327.179 192.289 333.427C193.532 339.676 196.6 345.415 201.105 349.92C205.609 354.425 211.349 357.493 217.597 358.736C223.846 359.979 230.323 359.341 236.209 356.903C242.094 354.465 247.125 350.336 250.665 345.039C254.204 339.742 256.093 333.514 256.093 327.143C256.093 318.6 252.7 310.407 246.659 304.366C240.618 298.325 232.425 294.931 223.882 294.931ZM223.882 355.328C218.298 355.328 212.84 353.672 208.199 350.57C203.557 347.467 199.94 343.057 197.805 337.898C195.67 332.739 195.113 327.063 196.205 321.587C197.297 316.112 199.988 311.083 203.939 307.138C207.889 303.192 212.921 300.507 218.398 299.422C223.875 298.338 229.551 298.902 234.707 301.043C239.863 303.185 244.268 306.808 247.365 311.454C250.462 316.1 252.111 321.56 252.103 327.143C252.103 334.628 249.13 341.806 243.837 347.099C238.545 352.392 231.367 355.365 223.882 355.365V355.328Z" fill="#1E1E25" stroke="white" stroke-miterlimit="10"/>
<path d="M223.881 348.438C235.642 348.438 245.176 338.904 245.176 327.143C245.176 315.382 235.642 305.849 223.881 305.849C212.121 305.849 202.587 315.382 202.587 327.143C202.587 338.904 212.121 348.438 223.881 348.438Z" stroke="#1E1E25" stroke-miterlimit="10"/>
<path d="M223.882 342.48C232.353 342.48 239.219 335.614 239.219 327.143C239.219 318.673 232.353 311.806 223.882 311.806C215.412 311.806 208.545 318.673 208.545 327.143C208.545 335.614 215.412 342.48 223.882 342.48Z" stroke="#1E1E25" stroke-miterlimit="10"/>
<path d="M223.881 335.379C228.43 335.379 232.117 331.692 232.117 327.143C232.117 322.595 228.43 318.907 223.881 318.907C219.333 318.907 215.646 322.595 215.646 327.143C215.646 331.692 219.333 335.379 223.881 335.379Z" fill="#1E1E25" stroke="white" stroke-miterlimit="10"/>
<path d="M515.598 518.299H194.378L237.763 485.914H472.213L515.598 518.299Z" fill="#707070" stroke="#393B54" stroke-linecap="round" stroke-linejoin="round"/>
<path d="M515.717 518.299H194.378V526.828H515.717V518.299Z" fill="#393B54" stroke="#393B54" stroke-linecap="round" stroke-linejoin="round"/>
<path d="M515.598 518.299H194.378L237.763 485.914H472.213L515.598 518.299Z" fill="#707070" stroke="#393B54" stroke-linecap="round" stroke-linejoin="round"/>
<path d="M229.884 511.409H224.549L248.744 490.453H253.091L229.884 511.409Z" fill="#393B54" stroke="#393B54" stroke-linecap="round" stroke-linejoin="round"/>
<path d="M243.144 499.439H238.376L241.011 497.151H245.669L243.144 499.439Z" fill="#6959CB" stroke="#393B54" stroke-linecap="round" stroke-linejoin="round"/>
<path d="M240.005 511.409H234.679L256.998 490.453H261.336L240.005 511.409Z" fill="#393B54" stroke="#393B54" stroke-linecap="round" stroke-linejoin="round"/>
<path d="M244.91 506.595H239.804L242.586 503.978H247.564L244.91 506.595Z" fill="#6959CB" stroke="#393B54" stroke-linecap="round" stroke-linejoin="round"/>
<path d="M250.135 511.409H244.8L265.243 490.453H269.581L250.135 511.409Z" fill="#393B54" stroke="#393B54" stroke-linecap="round" stroke-linejoin="round"/>
<path d="M256.87 504.152H251.883L254.317 501.654H259.194L256.87 504.152Z" fill="#6959CB" stroke="#393B54" stroke-linecap="round" stroke-linejoin="round"/>
<path d="M260.257 511.409H254.931L273.489 490.453H277.836L260.257 511.409Z" fill="#393B54" stroke="#393B54" stroke-linecap="round" stroke-linejoin="round"/>
<path d="M270.295 499.439H265.527L267.559 497.151H272.217L270.295 499.439Z" fill="#6959CB" stroke="#393B54" stroke-linecap="round" stroke-linejoin="round"/>
<path d="M270.387 511.409H265.052L281.734 490.453H286.081L270.387 511.409Z" fill="#393B54" stroke="#393B54" stroke-linecap="round" stroke-linejoin="round"/>
<path d="M279.355 499.439H274.587L276.408 497.151H281.066L279.355 499.439Z" fill="white" stroke="#393B54" stroke-linecap="round" stroke-linejoin="round"/>
<path d="M295.552 511.409H290.227L302.242 490.453H306.579L295.552 511.409Z" fill="#393B54" stroke="#393B54" stroke-linecap="round" stroke-linejoin="round"/>
<path d="M297.785 507.163H292.66L294.17 504.518H299.176L297.785 507.163Z" fill="#6959CB" stroke="#393B54" stroke-linecap="round" stroke-linejoin="round"/>
<path d="M305.682 511.409H300.347L310.486 490.453H314.824L305.682 511.409Z" fill="#393B54" stroke="#393B54" stroke-linecap="round" stroke-linejoin="round"/>
<path d="M312.317 496.209H307.705L308.739 494.067H313.251L312.317 496.209Z" fill="#6959CB" stroke="#393B54" stroke-linecap="round" stroke-linejoin="round"/>
<path d="M315.803 511.409H310.478L318.732 490.453H323.079L315.803 511.409Z" fill="#393B54" stroke="#393B54" stroke-linecap="round" stroke-linejoin="round"/>
<path d="M319.464 500.867H314.632L315.556 498.515H320.278L319.464 500.867Z" fill="#6959CB" stroke="#393B54" stroke-linecap="round" stroke-linejoin="round"/>
<path d="M325.934 511.409H320.599L326.977 490.453H331.324L325.934 511.409Z" fill="#393B54" stroke="#393B54" stroke-linecap="round" stroke-linejoin="round"/>
<path d="M327.645 504.738H322.63L323.399 502.212H328.294L327.645 504.738Z" fill="#6959CB" stroke="#393B54" stroke-linecap="round" stroke-linejoin="round"/>
<path d="M336.064 511.409H330.729L335.231 490.453H339.568L336.064 511.409Z" fill="#393B54" stroke="#393B54" stroke-linecap="round" stroke-linejoin="round"/>
<path d="M336.576 508.316H331.388L331.973 505.616H337.034L336.576 508.316Z" fill="#6959CB" stroke="#393B54" stroke-linecap="round" stroke-linejoin="round"/>
<path d="M346.89 508.92C346.816 509.835 345.499 510.603 343.925 510.603C342.351 510.603 341.179 509.844 341.298 508.92C341.417 507.995 342.735 507.282 344.254 507.282C345.773 507.282 346.954 508.005 346.89 508.92Z" fill="#6959CB" stroke="#393B54" stroke-linecap="round" stroke-linejoin="round"/>
<path d="M497.168 508.92C498.358 509.835 498.084 510.603 496.5 510.603C494.731 510.53 493.021 509.945 491.577 508.92C490.452 508.005 490.79 507.282 492.309 507.282C494.052 507.353 495.738 507.922 497.168 508.92Z" fill="#6959CB" stroke="#393B54" stroke-linecap="round" stroke-linejoin="round"/>
<path d="M285.193 508.92C284.704 509.466 284.102 509.9 283.429 510.191C282.756 510.482 282.028 510.623 281.294 510.603C279.72 510.603 278.979 509.844 279.611 508.92C280.103 508.388 280.703 507.967 281.37 507.685C282.037 507.402 282.757 507.265 283.482 507.282C284.964 507.282 285.733 508.005 285.193 508.92Z" fill="#6959CB" stroke="#393B54" stroke-linecap="round" stroke-linejoin="round"/>
<path d="M289.027 502.788C288.506 503.621 286.877 504.298 285.367 504.298C283.857 504.298 283.152 503.621 283.72 502.788C284.183 502.306 284.743 501.927 285.362 501.674C285.982 501.422 286.648 501.303 287.316 501.324C288.789 501.324 289.54 501.974 289.027 502.788Z" fill="#6959CB" stroke="#393B54" stroke-linecap="round" stroke-linejoin="round"/>
<path d="M291.983 498.112C291.507 498.872 289.97 499.485 288.561 499.485C287.152 499.485 286.429 498.872 286.941 498.112C287.386 497.667 287.918 497.319 288.504 497.089C289.09 496.859 289.716 496.753 290.345 496.776C291.718 496.776 292.45 497.353 291.983 498.112Z" fill="#6959CB" stroke="#393B54" stroke-linecap="round" stroke-linejoin="round"/>
<path d="M347.319 503.09C347.255 503.923 346.002 504.6 344.519 504.6C343.037 504.6 341.92 503.923 342.021 503.09C342.122 502.258 343.375 501.617 344.812 501.617C346.249 501.617 347.42 502.267 347.319 503.09Z" fill="#6959CB" stroke="#393B54" stroke-linecap="round" stroke-linejoin="round"/>
<path d="M475.773 495.468C475.668 495.297 475.511 495.165 475.324 495.092L463.712 490.947V487.287H460.619V489.84L459.136 489.309V487.287H456.052V488.202L447.048 484.981V483.791H438.711V488.202H447.048V486.994L456.052 490.224V494.653H459.136V491.331L460.619 491.862V494.653H463.712V492.969L470.648 495.458H468.415V499.888H476.743V495.458L475.773 495.468Z" fill="#393B54" stroke="#393B54" stroke-linecap="round" stroke-linejoin="round"/>
<path d="M449.345 496.529H434.822C424.474 493.858 413.837 492.472 403.15 492.402C392.11 492.453 381.116 493.839 370.408 496.529H356.956L353.753 502.386C353.753 507.876 375.871 512.37 403.169 512.37C430.466 512.37 452.584 507.904 452.584 502.386L449.345 496.529Z" fill="white" stroke="#393B54" stroke-linecap="round" stroke-linejoin="round"/>
<path d="M403.151 506.513C428.663 506.513 449.345 502.043 449.345 496.529C449.345 491.015 428.663 486.545 403.151 486.545C377.638 486.545 356.956 491.015 356.956 496.529C356.956 502.043 377.638 506.513 403.151 506.513Z" fill="#393B54"/>
<mask id="mask0_222_379" style="mask-type:luminance" maskUnits="userSpaceOnUse" x="356" y="486" width="94" height="21">
<path d="M403.151 506.513C428.663 506.513 449.345 502.043 449.345 496.529C449.345 491.015 428.663 486.545 403.151 486.545C377.638 486.545 356.956 491.015 356.956 496.529C356.956 502.043 377.638 506.513 403.151 506.513Z" fill="white"/>
</mask>
<g mask="url(#mask0_222_379)">
<path d="M381.609 505.36L405.301 496.007L448.137 494.26C445.071 491.414 436.35 489.025 424.655 487.698L404.102 493.912L357.111 497.353C358.402 500.821 367.974 503.804 381.609 505.36Z" fill="#ABABAB"/>
</g>
<path d="M403.151 506.513C428.663 506.513 449.345 502.043 449.345 496.529C449.345 491.015 428.663 486.545 403.151 486.545C377.638 486.545 356.956 491.015 356.956 496.529C356.956 502.043 377.638 506.513 403.151 506.513Z" stroke="#393B54" stroke-linecap="round" stroke-linejoin="round"/>
<path d="M403.15 498.799C413.015 498.799 421.013 497.07 421.013 494.937C421.013 492.804 413.015 491.075 403.15 491.075C393.285 491.075 385.287 492.804 385.287 494.937C385.287 497.07 393.285 498.799 403.15 498.799Z" fill="white" stroke="#393B54" stroke-linecap="round" stroke-linejoin="round"/>
<path d="M407.46 493.967C407.46 494.488 405.529 494.882 403.15 494.882C400.771 494.882 398.84 494.47 398.84 493.967C398.84 493.464 400.771 493.052 403.15 493.052C405.529 493.052 407.46 493.454 407.46 493.967Z" fill="#393B54" stroke="#393B54" stroke-linecap="round" stroke-linejoin="round"/>
<path d="M309.425 400.617L314.348 380.283C314.348 380.283 318.878 422.378 319.409 429.278C319.848 434.97 315.611 472.672 314.083 485.914H415.797L405.676 427.942L407.277 372.029L413.399 399.482C413.399 399.482 426.449 400.013 437.631 395.492C448.814 390.972 451.211 387.256 451.211 387.256C451.211 387.256 426.183 329.211 421.928 321.222C417.673 313.234 417.407 311.367 417.407 311.367C417.407 311.367 384.39 297.521 365.246 287.94L351.666 289.77C351.666 289.77 297.876 312.648 296.815 314.533C295.753 316.418 282.036 376.138 274.587 388.913C274.587 388.913 290.29 397.972 299.88 399.299L309.425 400.617Z" fill="#6959CB" stroke="#1E1E25" stroke-linecap="round" stroke-linejoin="round"/>
<path d="M351.63 289.752C351.63 289.752 344.757 292.68 335.881 296.524V296.698C335.881 311.66 344.922 323.785 356.068 323.785C367.214 323.785 376.264 311.66 376.264 296.698C376.264 295.49 376.2 294.291 376.091 293.12C372.211 291.289 368.504 289.541 365.21 287.894L351.63 289.752Z" stroke="#1E1E25" stroke-linecap="round" stroke-linejoin="round"/>
<path d="M314.349 380.283L306.03 344.722" stroke="#1E1E25" stroke-linecap="round" stroke-linejoin="round"/>
<path d="M308.492 356.06L297.639 342.252" stroke="#1E1E25" stroke-linecap="round" stroke-linejoin="round"/>
<path d="M407.277 372.029C407.277 372.029 403.69 350.149 404.678 336.825" stroke="#1E1E25" stroke-linecap="round" stroke-linejoin="round"/>
<path d="M406.646 368.396C406.646 368.396 405.658 347.678 409.117 337.283" stroke="#1E1E25" stroke-linecap="round" stroke-linejoin="round"/>
<path d="M338.846 274.314C338.846 274.314 340.182 295.618 340.676 301.767C341.17 307.917 346.798 318.239 356.919 317.745C367.04 317.251 370.499 305.757 371.03 301.502C371.561 297.247 371.03 275.668 371.03 275.668C371.03 275.668 362.245 283.127 352.389 281.26C347.397 280.027 342.76 277.649 338.846 274.314Z" fill="#B2B2B2" stroke="#1E1E25" stroke-linecap="round" stroke-linejoin="round"/>
<path d="M371.067 275.641C371.067 275.641 362.282 283.099 352.426 281.232C347.423 280.013 342.773 277.644 338.846 274.314C338.846 274.314 339.193 279.805 339.596 286.055C343.806 291.006 349.196 295.535 351.63 296.505C355.62 298.107 362.007 297.567 365.21 294.675C367.334 292.796 369.359 290.807 371.277 288.718C371.213 282.129 371.067 275.641 371.067 275.641Z" fill="#1E1E25" stroke="#1E1E25" stroke-linecap="round" stroke-linejoin="round"/>
<path d="M336.439 211.474C336.439 211.474 330.317 215.738 330.317 223.187C330.317 230.636 332.45 263.132 334.042 270.05C335.634 276.968 347.622 288.16 351.621 289.752C355.62 291.344 361.998 290.823 365.201 287.922C368.404 285.021 379.843 275.11 380.374 263.424C380.904 251.738 381.975 235.971 380.374 226.143C378.772 216.315 372.916 209.671 365.201 206.972C357.487 204.272 341.775 206.148 336.439 211.474Z" fill="#B2B2B2" stroke="#1E1E25" stroke-linecap="round" stroke-linejoin="round"/>
<path d="M365.21 206.944C357.486 204.281 341.774 206.148 336.448 211.474C336.448 211.474 330.326 215.738 330.326 223.187C330.326 225.512 330.537 230.27 330.866 235.925L331.388 236.237C331.388 236.237 332.458 227.186 340.182 223.992C347.905 220.799 359.079 225.319 364.67 224.789C370.261 224.258 374.791 213.606 375.057 216.553C375.322 219.499 368.934 224.789 369.2 225.603C369.465 226.417 373.464 230.664 376.923 236.786C378.58 239.714 379.989 241.416 381.215 241.993C381.361 236.686 381.076 231.376 380.364 226.116C378.79 216.269 372.924 209.607 365.21 206.944Z" fill="#1E1E25" stroke="#1E1E25" stroke-linecap="round" stroke-linejoin="round"/>
<path d="M338.05 252.214C338.05 252.214 341.509 255.408 347.1 252.214" stroke="#1E1E25" stroke-width="2" stroke-linecap="round" stroke-linejoin="round"/>
<path d="M362.812 252.214C362.812 252.214 366.272 255.408 371.863 252.214" stroke="#1E1E25" stroke-width="2" stroke-linecap="round" stroke-linejoin="round"/>
<path d="M336.979 243.429C336.979 243.429 340.713 238.634 348.162 241.297" stroke="#1E1E25" stroke-width="2" stroke-linecap="round" stroke-linejoin="round"/>
<path d="M361.742 241.828C361.742 241.828 366.318 236.237 373.995 241.828" stroke="#1E1E25" stroke-width="2" stroke-linecap="round" stroke-linejoin="round"/>
<path d="M348.162 261.53C348.162 261.53 347.631 264.193 349.498 265.529C351.364 266.865 355.354 269.519 357.734 268.457C360.113 267.396 363.856 266.06 364.139 264.458L364.405 262.866" stroke="#1E1E25" stroke-linecap="round" stroke-linejoin="round"/>
<path d="M346.835 269.784C346.835 269.784 355.885 277.773 367.599 269.784" stroke="#1E1E25" stroke-linecap="round" stroke-linejoin="round"/>
<path d="M324.47 241.938C324.104 241.938 323.752 241.8 323.485 241.55C323.218 241.3 323.056 240.957 323.033 240.592C323.033 239.943 321.99 224.615 326.95 216.077C327.153 215.77 327.466 215.552 327.825 215.468C328.183 215.383 328.56 215.439 328.879 215.624C329.198 215.808 329.434 216.108 329.54 216.46C329.646 216.813 329.613 217.193 329.448 217.523C324.927 225.301 325.897 240.245 325.906 240.4C325.92 240.589 325.896 240.779 325.836 240.958C325.777 241.138 325.682 241.304 325.558 241.447C325.434 241.59 325.282 241.706 325.113 241.791C324.944 241.875 324.759 241.925 324.57 241.938H324.47Z" fill="#858585" stroke="#1E1E25" stroke-linecap="round" stroke-linejoin="round"/>
<path d="M385.608 241.938H385.507C385.318 241.925 385.134 241.875 384.964 241.791C384.795 241.706 384.644 241.59 384.52 241.447C384.395 241.304 384.301 241.138 384.241 240.958C384.181 240.779 384.157 240.589 384.171 240.4C384.171 240.254 385.141 225.301 380.63 217.523C380.465 217.193 380.432 216.813 380.537 216.46C380.643 216.108 380.879 215.808 381.198 215.624C381.517 215.439 381.894 215.383 382.253 215.468C382.611 215.552 382.924 215.77 383.128 216.077C388.088 224.615 387.09 239.943 387.045 240.592C387.021 240.957 386.86 241.3 386.593 241.55C386.326 241.8 385.974 241.938 385.608 241.938Z" fill="#858585" stroke="#1E1E25" stroke-linecap="round" stroke-linejoin="round"/>
<path d="M387.859 222.592C386.825 218.174 384.702 214.084 381.682 210.696C377.738 206.194 370.646 201.014 358.457 200.017C358.16 199.924 357.852 199.872 357.542 199.861C356.8 199.861 356.077 199.861 355.364 199.861H354.613C353.909 199.861 353.195 199.861 352.463 199.861C352.152 199.872 351.844 199.924 351.548 200.017C326.154 202.085 322.191 222.382 322.145 222.602C322.051 223.043 322.046 223.5 322.131 223.943C322.216 224.387 322.389 224.809 322.641 225.184C322.893 225.56 323.217 225.88 323.596 226.127C323.974 226.375 324.398 226.543 324.843 226.623C325.287 226.703 325.744 226.692 326.184 226.592C326.625 226.492 327.041 226.304 327.407 226.04C327.774 225.776 328.083 225.441 328.318 225.054C328.552 224.668 328.706 224.238 328.771 223.791C328.771 223.617 332.093 207.008 354.988 206.587C377.656 206.999 381.014 223.059 381.16 223.809C381.331 224.678 381.837 225.445 382.568 225.944C383.3 226.443 384.198 226.633 385.069 226.474C385.94 226.316 386.714 225.82 387.222 225.095C387.73 224.37 387.933 223.475 387.786 222.602L387.859 222.592Z" fill="#858585" stroke="#1E1E25" stroke-linecap="round" stroke-linejoin="round"/>
<path d="M327.581 259.91C327.581 259.91 328.862 305.428 333.987 349.673C338.864 391.722 337.08 451.726 333.868 485.365" stroke="#1E1E25" stroke-linecap="round" stroke-linejoin="round"/>
<path d="M383.357 259.59C383.357 259.59 376.311 332.359 367.013 358.33C357.716 384.301 345.536 391.987 336.238 376.632" stroke="#1E1E25" stroke-linecap="round" stroke-linejoin="round"/>
<path d="M326.868 238.652H326.602C321.45 238.652 317.277 244.079 317.277 250.768C317.277 257.458 321.45 262.884 326.602 262.884H326.868V238.652Z" fill="white" stroke="#1E1E25" stroke-linecap="round" stroke-linejoin="round"/>
<path d="M328.89 237.298H327.508C325.83 237.298 324.47 238.658 324.47 240.336V261.155C324.47 262.833 325.83 264.193 327.508 264.193H328.89C330.568 264.193 331.928 262.833 331.928 261.155V240.336C331.928 238.658 330.568 237.298 328.89 237.298Z" fill="#858585" stroke="#1E1E25" stroke-linecap="round" stroke-linejoin="round"/>
<path d="M385.974 238.652H386.239C391.391 238.652 395.564 244.079 395.564 250.768C395.564 257.458 391.391 262.884 386.239 262.884H385.974V238.652Z" fill="white" stroke="#1E1E25" stroke-linecap="round" stroke-linejoin="round"/>
<path d="M383.951 264.202H385.333C387.011 264.202 388.371 262.842 388.371 261.164V240.345C388.371 238.667 387.011 237.307 385.333 237.307H383.951C382.273 237.307 380.913 238.667 380.913 240.345V261.164C380.913 262.842 382.273 264.202 383.951 264.202Z" fill="#858585" stroke="#1E1E25" stroke-linecap="round" stroke-linejoin="round"/>
<path d="M304.475 399.921L299.844 399.281C294.509 398.54 287.28 395.41 281.917 392.774C278.186 401.549 275.792 410.834 274.816 420.319C273.59 430.907 262.005 465.049 259.9 470.906C257.795 476.763 262.828 479.691 263.103 485.017C263.377 490.343 272.153 494.342 272.949 495.669C273.745 496.996 276.948 497.27 276.408 494.607C275.868 491.944 274.02 489.547 274.285 487.149C274.551 484.752 276.115 475.436 276.115 475.436C276.115 475.436 279.309 477.028 280.38 478.63C281.451 480.231 279.309 485.035 278.248 489.016C277.186 492.997 279.584 496.74 280.645 496.2C281.707 495.66 283.839 486.884 286.237 482.089C288.634 477.294 288.067 475.436 285.971 472.773C283.876 470.11 276.381 457.591 276.381 457.591C276.381 457.591 296.888 422.451 300.082 414.462C301.828 409.705 303.294 404.85 304.475 399.921Z" fill="#B2B2B2" stroke="#1E1E25" stroke-linecap="round" stroke-linejoin="round"/>
<path d="M281.917 392.774C281.533 393.644 281.112 394.605 280.682 395.767C287.179 400.987 295.454 403.468 303.751 402.685C303.999 401.77 304.246 400.809 304.474 399.94L299.844 399.299C294.509 398.521 287.28 395.41 281.917 392.774Z" fill="#1E1E25" stroke="#1E1E25" stroke-linecap="round" stroke-linejoin="round"/>
<path d="M268.155 475.701C268.155 475.701 268.694 486.353 268.155 489.281C267.615 492.21 272.95 494.607 273.746 497.005C274.542 499.403 278.541 500.995 278.806 496.2C279.072 491.405 274.286 487.149 274.286 487.149L276.958 474.1" fill="#B2B2B2"/>
<path d="M268.155 475.701C268.155 475.701 268.694 486.353 268.155 489.281C267.615 492.21 272.95 494.607 273.746 497.005C274.542 499.403 278.541 500.995 278.806 496.2C279.072 491.405 274.286 487.149 274.286 487.149L276.958 474.1" stroke="#1E1E25" stroke-linecap="round" stroke-linejoin="round"/>
<path d="M262.562 476.497L263.102 482.62" stroke="#1E1E25" stroke-linecap="round" stroke-linejoin="round"/>
<path d="M437.632 395.465C433.477 397.149 425.498 398.713 421.59 399.281C417.93 404.103 410.527 417.318 398.264 434.146C390.943 444.213 383.202 449.804 382.396 451.936C381.591 454.068 370.838 473.066 368.176 477.321C365.513 481.576 363.38 484.248 365.247 484.514C367.114 484.779 367.91 485.045 371.104 481.055C374.298 477.065 379.34 466.413 379.34 466.413C379.34 466.413 375.075 482.647 374.014 485.045C372.952 487.442 371.882 488.778 373.749 489.574C375.615 490.37 378.809 489.84 380.932 485.85C383.055 481.86 391.584 465.077 391.584 465.077C391.584 465.077 384.931 485.31 383.87 487.442C382.808 489.574 387.063 490.636 388.39 488.238C389.717 485.841 393.359 473.414 394.165 472.617C394.97 471.821 397.505 467.429 398.74 461.316C399.216 458.909 399.701 452.421 399.701 452.421C399.701 452.421 432.562 424.217 441.613 414.636C450.663 405.055 454.424 400.251 454.424 395.73C454.424 393.141 452.246 390.24 450.379 388.162C448.934 389.553 445.42 392.308 437.632 395.465Z" fill="#B2B2B2" stroke="#1E1E25" stroke-linecap="round" stroke-linejoin="round"/>
<path d="M451.111 389.013C450.855 388.721 450.608 388.428 450.361 388.162C448.933 389.553 445.419 392.308 437.632 395.483C433.477 397.167 425.497 398.732 421.59 399.299C420.894 400.214 420.052 401.468 419.073 402.96C426.852 402.95 441.521 401.139 451.111 389.013Z" fill="#1E1E25" stroke="#1E1E25" stroke-linecap="round" stroke-linejoin="round"/>
<path d="M373.767 489.574C373.767 489.574 381.49 476.763 384.418 464.812" stroke="#1E1E25" stroke-linecap="round" stroke-linejoin="round"/>
<path d="M430.393 245.36C428.589 244.445 426.838 243.427 425.149 242.313C422.596 240.602 421.205 241.398 421.535 242.56C421.864 243.722 419.705 251.711 416.456 255.939C413.207 260.167 413.491 255.344 411.029 254.502C408.568 253.66 407.241 256.113 409.126 258.922C411.011 261.731 415.285 260.88 415.843 259.16C417.528 255.336 419.447 251.62 421.59 248.032C422.77 246.202 423.658 246.294 425.808 248.435C426.726 249.401 427.87 250.123 429.137 250.537C430.404 250.951 431.754 251.043 433.065 250.805C433.065 250.805 428.654 259.242 427.318 261.933C425.982 264.623 424.857 268.064 422.871 267.991C420.885 267.917 418.661 263.983 417.078 266.417C415.495 268.851 420.208 272.877 422.743 271.724C425.278 270.571 426.824 265.273 428.7 261.603C430.576 257.934 436.021 248.298 435.691 246.962C435.362 245.626 432.827 246.943 430.393 245.36Z" fill="#393B54"/>
<path d="M413.107 226.134C411.829 225.487 410.588 224.769 409.391 223.983C407.561 222.775 406.6 223.352 406.838 224.157C407.076 224.962 405.548 230.618 403.242 233.619C400.936 236.621 401.146 233.189 399.407 232.604C397.669 232.018 396.726 233.738 398.062 235.724C399.398 237.71 402.418 237.106 402.812 235.889C404.003 233.187 405.36 230.562 406.875 228.028C407.717 226.738 408.339 226.793 409.858 228.312C410.509 228.993 411.318 229.503 412.214 229.795C413.11 230.088 414.064 230.153 414.992 229.986C414.992 229.986 411.871 235.953 410.929 237.856C409.986 239.76 409.19 242.194 407.781 242.139C406.371 242.084 404.797 239.311 403.681 241.032C402.565 242.752 405.896 245.607 407.689 244.774C409.483 243.942 410.581 240.199 411.899 237.627C413.216 235.056 417.078 228.211 416.849 227.241C416.621 226.271 414.827 227.25 413.107 226.134Z" fill="#393B54"/>
<path d="M303.953 258.583C302.679 257.936 301.441 257.218 300.247 256.433C298.416 255.225 297.501 255.801 297.694 256.607C297.886 257.412 296.403 263.067 294.097 266.069C291.791 269.071 292.002 265.639 290.263 265.053C288.524 264.468 287.582 266.188 288.918 268.174C290.254 270.159 293.274 269.556 293.667 268.338C294.858 265.637 296.215 263.012 297.73 260.478C298.563 259.187 299.194 259.242 300.713 260.761C301.364 261.443 302.174 261.953 303.069 262.245C303.965 262.537 304.92 262.603 305.847 262.436C305.847 262.436 302.727 268.402 301.784 270.306C300.842 272.209 300.045 274.644 298.636 274.589C297.227 274.534 295.653 271.752 294.536 273.472C293.42 275.193 296.751 278.048 298.545 277.224C300.338 276.401 301.436 272.649 302.754 270.068C304.072 267.487 307.934 260.661 307.705 259.691C307.476 258.721 305.673 259.7 303.953 258.583Z" fill="#393B54"/>
<defs>
<filter id="filter0_f_222_379" x="0" y="0" width="708.938" height="650.665" filterUnits="userSpaceOnUse" color-interpolation-filters="sRGB">
<feFlood flood-opacity="0" result="BackgroundImageFix"/>
<feBlend mode="normal" in="SourceGraphic" in2="BackgroundImageFix" result="shape"/>
<feGaussianBlur stdDeviation="75" result="effect1_foregroundBlur_222_379"/>
</filter>
</defs>
</svg>
